<?xml version="1.0" encoding="utf-8" standalone="no"?>
<!DOCTYPE svg PUBLIC "-//W3C//DTD SVG 1.1//EN"
  "http://www.w3.org/Graphics/SVG/1.1/DTD/svg11.dtd">
<!-- Created with matplotlib (http://matplotlib.org/) -->
<svg height="442pt" version="1.1" viewBox="0 0 3376 442" width="3376pt" xmlns="http://www.w3.org/2000/svg" xmlns:xlink="http://www.w3.org/1999/xlink">
 <defs>
  <style type="text/css">
*{stroke-linecap:butt;stroke-linejoin:round;}
  </style>
 </defs>
 <g id="figure_1">
  <g id="patch_1">
   <path d="
M0 442.8
L3376.8 442.8
L3376.8 0
L0 0
z
" style="fill:#ffffff;"/>
  </g>
  <g id="axes_1">
   <g id="patch_2">
    <path d="
M422.1 398.52
L3039.12 398.52
L3039.12 44.28
L422.1 44.28
z
" style="fill:#ffffff;"/>
   </g>
   <g id="line2d_1">
    <path clip-path="url(#p3c807a1472)" d="
M422.1 301.641
L423.147 228.218
L424.194 89.1951
L425.24 83.3979
L426.287 238.173
L427.334 295.24
L429.428 78.7445
L430.474 169.941
L431.521 322.49
L432.568 321.79
L433.615 147.195
L434.662 77.0543
L435.709 216.445
L436.755 380.901
L437.802 345.675
L438.849 177.926
L439.896 150.691
L441.989 396.19
L443.036 318.716
L444.083 225.675
L445.13 241.996
L446.177 379.489
L447.223 359.113
L448.27 351.515
L449.317 272.996
L450.364 300.241
L451.411 381.011
L452.457 350.513
L453.504 383.176
L454.551 341.118
L455.598 370.182
L456.645 375.859
L457.691 324.714
L458.738 341.676
L459.785 392.476
L460.832 383.613
L461.879 334.034
L462.926 259.915
L463.972 276.453
L465.019 321.368
L466.066 351.787
L468.16 254.157
L469.206 239.054
L470.253 252.917
L471.3 261.031
L472.347 252.622
L473.394 277.536
L474.44 274.307
L475.487 238.858
L476.534 170.988
L477.581 186.005
L478.628 237.585
L479.674 255.655
L480.721 193.921
L481.768 163.633
L482.815 229.15
L483.862 267.648
L484.908 205.612
L485.955 82.4042
L487.002 125.696
L488.049 259.242
L489.096 324.741
L491.189 59.9346
L492.236 123.782
L493.283 281.56
L494.33 299.416
L495.377 131.308
L496.423 57.9197
L497.47 188.157
L498.517 351.941
L499.564 284.842
L500.611 114.926
L501.657 84.2804
L502.704 268.207
L503.751 364.713
L504.798 253.911
L505.845 98.9378
L506.891 155.522
L507.938 348.005
L508.985 367.174
L510.032 203.483
L511.079 76.1952
L513.172 391.138
L514.219 388.974
L515.266 196.604
L516.313 130.463
L517.36 268.976
L518.406 368.704
L519.453 389.874
L520.5 249.366
L521.547 231.915
L522.594 334.151
L523.64 339.263
L524.687 379.571
L525.734 278.807
L526.781 254.187
L527.828 376.14
L528.874 317.042
L529.921 347.742
L530.968 368.802
L532.015 304.929
L533.062 389.726
L534.108 350.094
L535.155 324.74
L536.202 388.049
L537.249 388.298
L538.296 342.688
L539.342 307.907
L540.389 331.853
L541.436 395.059
L542.483 365.488
L543.53 325.843
L544.577 267.609
L545.623 304.171
L546.67 302.071
L547.717 314.462
L548.764 298.485
L549.811 321.929
L550.857 307.511
L551.904 257.007
L552.951 220.606
L553.998 255.081
L555.045 327.859
L556.091 313.01
L558.185 217.524
L559.232 277.75
L560.279 288.698
L561.325 251.95
L562.372 182.843
L563.419 225.915
L564.466 318.425
L565.513 333.997
L567.606 142.29
L568.653 197.227
L569.7 303.397
L570.747 335.774
L571.794 234.646
L572.84 176.866
L573.887 245.399
L574.934 357.053
L575.981 326.787
L577.028 176.276
L578.074 142.859
L579.121 276.283
L580.168 368.485
L581.215 343.219
L582.262 166.612
L583.308 142.487
L584.355 331.054
L585.402 351.286
L586.449 315.514
L587.496 140.697
L588.542 195.692
L589.589 373.878
L591.683 277.707
L592.73 122.048
L593.777 263.768
L594.823 330.336
L595.87 322.307
L596.917 263.271
L597.964 194.399
L599.011 334.144
L600.057 311.601
L601.104 377.986
L602.151 269.248
L603.198 279.545
L604.245 383.774
L605.291 300.166
L606.338 395.124
L607.385 319.151
L608.432 319.738
L609.479 388.312
L610.525 364.601
L611.572 370.032
L612.619 380.616
L613.666 373.163
L614.713 374.784
L615.759 390.569
L616.806 382.058
L617.853 359.383
L618.9 330.748
L619.947 352.23
L620.994 337.001
L622.04 327.052
L623.087 320.713
L624.134 346.82
L625.181 367.311
L627.274 304.123
L628.321 280.403
L629.368 312.698
L630.415 320.027
L631.462 341.075
L632.508 318.522
L633.555 304.732
L634.602 278.304
L635.649 285.845
L636.696 326.73
L637.742 326.518
L638.789 295.27
L639.836 253.571
L640.883 295.381
L641.93 354.782
L642.976 340.238
L644.023 252.804
L645.07 213.077
L646.117 305.93
L647.164 377.672
L648.211 338.382
L649.257 222.028
L650.304 239.303
L651.351 350.445
L652.398 383.295
L653.445 269.579
L654.491 185.93
L655.538 294.997
L656.585 360.03
L657.632 388.046
L658.679 215.028
L659.725 177.509
L660.772 326.613
L661.819 327.594
L662.866 368.1
L663.913 206.909
L664.959 220.119
L666.006 397.741
L667.053 333.264
L668.1 326.31
L669.147 196.155
L670.193 277.32
L671.24 349.452
L672.287 334.983
L673.334 328.577
L674.381 239.357
L675.428 340.107
L676.474 354.422
L677.521 354.355
L679.615 302.216
L680.662 368.943
L681.708 348.99
L682.755 369.176
L683.802 355.068
L684.849 344.501
L685.896 387.923
L686.942 341.72
L687.989 367.448
L689.036 397.237
L690.083 378.51
L691.13 371.102
L692.176 357.621
L694.27 389.798
L695.317 362.538
L696.364 317.433
L697.411 358.946
L698.457 391.361
L699.504 397.32
L700.551 312.478
L701.598 288.44
L703.691 395.894
L704.738 361.926
L705.785 284.036
L706.832 298.546
L707.879 370.344
L708.925 389.884
L709.972 306.412
L711.019 255.209
L712.066 295.414
L713.113 389.066
L714.159 387.214
L715.206 290.165
L716.253 246.237
L718.347 388.603
L719.393 337.802
L720.44 270.231
L721.487 265.702
L722.534 358.148
L723.581 368.365
L724.628 312.596
L725.674 262.83
L726.721 311.984
L727.768 375.165
L728.815 357.353
L729.862 283.951
L730.908 258.723
L731.955 339.449
L733.002 398.162
L734.049 369.826
L735.096 267.462
L736.142 246.007
L737.189 323.466
L738.236 381.12
L739.283 393.202
L740.33 291.9
L741.376 254.528
L742.423 334.972
L743.47 360.872
L744.517 396.625
L745.564 290.19
L746.61 254.653
L747.657 374.511
L748.704 340.864
L749.751 398.394
L750.798 266.724
L751.845 274.096
L752.891 388.479
L753.938 326.751
L754.985 377.128
L756.032 264.495
L757.079 329.233
L758.125 346.708
L759.172 328.568
L760.219 343.113
L761.266 298.911
L762.313 386.336
L763.359 327.305
L764.406 373.415
L765.453 325.507
L766.5 359.915
L767.547 349.826
L768.593 326.402
L769.64 363.829
L770.687 336.967
L771.734 379.416
L772.781 297.064
L773.827 350.638
L774.874 340.133
L775.921 366.61
L776.968 330.891
L778.015 286.272
L779.062 386.729
L780.108 345.859
L781.155 394.23
L782.202 298.012
L783.249 312.251
L784.296 398.471
L786.389 349.776
L787.436 292.429
L789.53 389.2
L790.576 398.159
L791.623 320.007
L792.67 296.646
L794.764 394.962
L795.81 369.957
L796.857 321.559
L797.904 310.294
L798.951 356.655
L799.998 389.56
L801.044 353.317
L802.091 311.943
L803.138 309.866
L804.185 375.623
L805.232 391.674
L806.279 352.396
L807.325 289.637
L808.372 317.72
L809.419 394.946
L810.466 383.067
L811.513 338.97
L812.559 266.306
L813.606 326.429
L814.653 376.131
L815.7 365.454
L817.793 256.055
L818.84 332.94
L819.887 352.407
L820.934 382.666
L821.981 288.345
L823.027 265.671
L824.074 371.118
L825.121 338.985
L826.168 392.392
L827.215 296.848
L828.262 298.643
L829.308 389.977
L830.355 357.05
L831.402 375.144
L832.449 307.992
L833.496 347.074
L834.542 377.867
L835.589 383.22
L837.683 327.476
L838.73 384.299
L839.776 376.062
L840.823 388.418
L841.87 350.773
L842.917 365.408
L843.964 391.71
L845.01 366.234
L846.057 385.748
L847.104 345.877
L848.151 383.204
L849.198 351.179
L850.244 339.121
L851.291 372.227
L852.338 337.135
L853.385 385.782
L854.432 326.948
L855.479 340.746
L856.525 375.819
L857.572 353.873
L858.619 364.067
L859.666 309.522
L860.713 365.083
L861.759 349.999
L862.806 372.205
L863.853 321.667
L864.9 309.529
L865.947 388.941
L866.993 344.385
L868.04 378.678
L869.087 303.799
L870.134 335.532
L871.181 373.579
L872.227 374.466
L873.274 321.895
L874.321 291.75
L875.368 365.84
L876.415 356.794
L877.461 376.348
L878.508 290.048
L879.555 305.849
L880.602 381.804
L881.649 356.612
L882.696 344.522
L883.742 275.919
L884.789 330.72
L885.836 364.308
L886.883 378.237
L887.93 327.608
L888.976 282.702
L890.023 352.315
L891.07 371.882
L892.117 398.188
L893.164 318.198
L894.21 298.268
L895.257 362.027
L896.304 385.843
L897.351 392.785
L898.398 333.331
L899.444 317.125
L901.538 397.067
L902.585 386.756
L903.632 341.021
L904.678 316.243
L905.725 359.17
L906.772 382.094
L907.819 398.242
L908.866 342.415
L909.913 315.626
L910.959 373.491
L912.006 374.884
L913.053 393.229
L914.1 338.987
L915.147 349.903
L916.193 385.3
L918.287 360.654
L919.334 317.13
L920.381 392.965
L921.427 341.747
L922.474 367.908
L923.521 325.389
L924.568 335.91
L925.615 364.892
L926.661 320.467
L927.708 394.434
L928.755 317.081
L929.802 385.549
L930.849 317.994
L931.895 325.195
L932.942 356.454
L933.989 337.404
L935.036 369.718
L936.083 307.465
L937.13 375.078
L938.176 339.552
L939.223 386.315
L940.27 316.365
L941.317 312.253
L942.364 382.548
L943.41 349.669
L944.457 371.653
L945.504 297.397
L946.551 336.962
L947.598 381.946
L948.644 389.531
L949.691 331.05
L950.738 304.435
L951.785 379.459
L952.832 374.676
L953.878 380.44
L954.925 293.944
L955.972 305.615
L957.019 384.772
L958.066 363.163
L959.113 369.018
L960.159 292.605
L961.206 302.419
L962.253 383.34
L963.3 368.834
L964.347 365.086
L965.393 295.753
L966.44 307.492
L967.487 397.438
L968.534 372.292
L969.581 364.286
L970.627 291.344
L971.674 318.041
L972.721 398.017
L973.768 380.408
L974.815 350.864
L975.861 295.006
L977.955 385.351
L979.002 390.852
L980.049 331.827
L981.095 311.043
L982.142 366.466
L983.189 376.696
L984.236 393.068
L985.283 335.093
L986.33 341.457
L987.376 389.131
L988.423 390.893
L989.47 360.364
L990.517 343.046
L991.564 371.75
L992.61 384.042
L993.657 386.934
L994.704 348.581
L995.751 354.327
L996.798 387.008
L997.844 369.717
L998.891 388.932
L999.938 349.895
L1000.98 368.28
L1002.03 372.1
L1003.08 366.088
L1004.13 394.804
L1005.17 367.046
L1006.22 389.946
L1007.27 374.681
L1008.31 372.135
L1009.36 396.612
L1010.41 374.373
L1011.45 392.966
L1012.5 354.068
L1013.55 354.59
L1014.59 397.034
L1015.64 374.935
L1016.69 387.184
L1017.73 340.36
L1018.78 353.524
L1019.83 393.043
L1020.87 387.973
L1021.92 345.257
L1022.97 320.559
L1024.01 376.257
L1025.06 363.779
L1026.11 390.469
L1027.16 296.597
L1028.2 312.038
L1029.25 389.15
L1030.3 356.933
L1031.34 337.309
L1032.39 262.953
L1033.44 341.654
L1034.48 333.701
L1035.53 359.944
L1036.58 286.241
L1037.62 245.593
L1038.67 368.746
L1039.72 314.02
L1040.76 389.425
L1041.81 277.271
L1042.86 279.224
L1043.9 391.763
L1044.95 346.556
L1046 347.076
L1047.04 277.045
L1048.09 328.993
L1049.14 366.476
L1050.18 385.067
L1051.23 328.851
L1052.28 298.329
L1053.33 365.308
L1054.37 384.971
L1055.42 384.832
L1056.47 337.096
L1057.51 341.47
L1058.56 381.047
L1059.61 391.835
L1060.65 375.384
L1061.7 356.942
L1062.75 367.812
L1063.79 380.8
L1064.84 384.696
L1065.89 378.533
L1066.93 377.075
L1067.98 379.296
L1069.03 388.424
L1070.07 391.407
L1071.12 378.983
L1072.17 370.841
L1073.21 382.941
L1074.26 390.381
L1075.31 386.985
L1076.36 381.91
L1077.4 360.153
L1078.45 385.271
L1079.5 373.36
L1080.54 376.094
L1081.59 382.789
L1082.64 366.518
L1083.68 386.386
L1084.73 361.9
L1085.78 384.139
L1086.82 372.119
L1087.87 393.55
L1088.92 355.978
L1089.96 362.474
L1091.01 384.431
L1092.06 362.806
L1093.1 371.274
L1094.15 328.376
L1095.2 363.773
L1096.24 365.861
L1097.29 380.115
L1098.34 344.534
L1099.38 320.055
L1100.43 390.284
L1101.48 361.338
L1102.53 381.605
L1103.57 303.486
L1104.62 324.307
L1105.67 372.725
L1106.71 350.774
L1107.76 365.432
L1108.81 287.115
L1109.85 336.976
L1110.9 371.958
L1111.95 364.927
L1112.99 334.915
L1114.04 295.847
L1115.09 361.077
L1116.13 351.668
L1117.18 379.724
L1118.23 320.383
L1119.27 290.41
L1120.32 362.347
L1121.37 359.56
L1122.41 397.202
L1123.46 328.889
L1124.51 317.261
L1125.55 389.298
L1126.6 374.897
L1127.65 369.393
L1128.7 307.66
L1129.74 333.692
L1130.79 386.881
L1131.84 365.257
L1132.88 371.85
L1133.93 324.951
L1134.98 354.295
L1136.02 392.848
L1137.07 394.725
L1138.12 355.195
L1139.16 354.681
L1140.21 397.804
L1141.26 377.933
L1142.3 378.263
L1143.35 335.57
L1145.44 388.405
L1146.49 382.498
L1148.58 351.122
L1149.63 387.806
L1150.68 374.319
L1151.73 397.918
L1152.77 361.046
L1153.82 369.214
L1154.87 390.37
L1155.91 373.32
L1156.96 388.253
L1158.01 375.019
L1159.05 389.778
L1160.1 378.535
L1161.15 388.139
L1162.19 383.185
L1163.24 384.718
L1164.29 386.477
L1165.33 368.045
L1166.38 390.201
L1167.43 391.733
L1168.47 390.911
L1169.52 376.405
L1170.57 368.687
L1171.61 376.37
L1172.66 390.45
L1173.71 393.279
L1174.75 383.757
L1175.8 364.855
L1176.85 376.171
L1177.9 390.787
L1178.94 397.882
L1181.04 343.639
L1182.08 384.113
L1183.13 377.658
L1184.18 390.378
L1185.22 338.883
L1186.27 326.028
L1187.32 385.654
L1188.36 357.811
L1189.41 396.756
L1190.46 321.693
L1191.5 331.29
L1192.55 389.015
L1193.6 357.039
L1194.64 369.8
L1195.69 307.309
L1196.74 351.534
L1197.78 363.047
L1198.83 371.477
L1199.88 338.393
L1200.93 310.027
L1201.97 380.963
L1203.02 359.095
L1204.07 393.046
L1205.11 322.603
L1206.16 342.218
L1207.21 378.673
L1208.25 371.492
L1209.3 355.389
L1210.35 318.62
L1211.39 373.053
L1212.44 367.122
L1213.49 398.219
L1214.53 341.315
L1215.58 350.755
L1216.63 384.009
L1217.67 377.16
L1218.72 358.254
L1219.77 325.523
L1220.81 376.1
L1221.86 360.929
L1222.91 380.517
L1223.95 359.072
L1225 342.931
L1226.05 391.999
L1227.1 380.901
L1228.14 395.081
L1229.19 366.449
L1230.24 382.088
L1231.28 383.565
L1232.33 385.378
L1233.38 384.859
L1234.42 368.71
L1235.47 392.85
L1236.52 386.142
L1237.56 384.042
L1238.61 392.345
L1239.66 387.916
L1240.7 397.291
L1241.75 385.169
L1242.8 390.791
L1243.84 386.316
L1244.89 382.46
L1245.94 394.658
L1246.98 371.524
L1248.03 374.039
L1249.08 392.313
L1250.13 381.801
L1251.17 393.948
L1252.22 368.809
L1253.27 377.223
L1254.31 390.405
L1255.36 388.506
L1257.45 350.106
L1258.5 380.085
L1259.55 372.779
L1260.59 381.999
L1262.69 340.117
L1263.73 378.789
L1264.78 371.23
L1265.83 387.468
L1266.87 357.729
L1267.92 341.854
L1268.97 384.408
L1270.01 373.578
L1271.06 396.683
L1272.11 357.632
L1273.15 354.607
L1274.2 398.369
L1275.25 379.874
L1276.3 382.394
L1277.34 351.563
L1278.39 371.439
L1279.44 379.661
L1280.48 380.781
L1281.53 369.677
L1282.58 348.608
L1283.62 386.235
L1284.67 377.963
L1285.72 398.237
L1286.76 354.324
L1287.81 364.748
L1288.86 383.215
L1289.9 370.109
L1290.95 383.602
L1292 347.424
L1293.04 380.539
L1294.09 372.059
L1295.14 383.665
L1296.18 363.96
L1297.23 355.282
L1298.28 383.603
L1299.33 364.336
L1300.37 396.387
L1301.42 346.303
L1302.47 373.328
L1303.51 368.391
L1304.56 361.871
L1305.61 382.891
L1306.65 359.481
L1307.7 393.479
L1308.75 358.086
L1309.79 382.709
L1310.84 362.59
L1311.89 377.769
L1312.93 368.852
L1313.98 349.817
L1315.03 396.296
L1316.07 357.913
L1317.12 389.225
L1318.17 361.054
L1319.21 364.846
L1320.26 383.29
L1321.31 370.935
L1322.35 384.722
L1323.4 354.315
L1324.45 378.472
L1325.5 373.663
L1326.54 378.191
L1327.59 375.126
L1328.64 351.904
L1329.68 379.776
L1330.73 382.37
L1331.78 386.699
L1332.82 374.152
L1333.87 359.967
L1334.92 383.084
L1335.96 384.169
L1337.01 387.921
L1339.1 356.806
L1340.15 377.769
L1341.2 383.306
L1342.24 380.101
L1343.29 384.654
L1344.34 362.721
L1345.38 379.007
L1346.43 388.479
L1347.48 388.874
L1349.57 368.93
L1350.62 396.923
L1351.67 379.013
L1352.71 394.843
L1353.76 364.346
L1354.81 366.405
L1355.85 397.556
L1356.9 379.85
L1357.95 398.12
L1358.99 369.15
L1360.04 382.904
L1361.09 388.079
L1362.13 384.103
L1363.18 386.579
L1364.23 371.919
L1365.27 397.594
L1366.32 378.43
L1367.37 387.732
L1368.41 376.463
L1369.46 378.422
L1370.51 391.136
L1371.55 375.989
L1372.6 396.772
L1373.65 367.9
L1374.7 385.42
L1375.74 382.108
L1376.79 374.917
L1377.84 391.048
L1378.88 378.233
L1379.93 397.433
L1380.98 379.318
L1382.02 388.24
L1383.07 382.898
L1384.12 393.355
L1385.16 380.915
L1386.21 377.244
L1387.26 391.367
L1388.3 380.176
L1389.35 388.664
L1390.4 368.371
L1391.44 386.315
L1392.49 372.795
L1393.54 384.614
L1394.58 370.43
L1395.63 353.702
L1396.68 396.306
L1397.73 364.338
L1398.77 392.039
L1399.82 358.341
L1401.91 375.455
L1402.96 363.343
L1404.01 382.919
L1405.05 343.357
L1406.1 375.611
L1407.15 360.553
L1408.19 365.046
L1409.24 378.117
L1410.29 346.31
L1411.33 388.053
L1412.38 367.625
L1413.43 384.979
L1414.47 371.061
L1415.52 366.919
L1416.57 386.875
L1417.61 366.198
L1418.66 388.406
L1419.71 370.259
L1420.75 377.436
L1421.8 397.685
L1422.85 381.238
L1423.9 391.764
L1424.94 390.626
L1425.99 388.957
L1427.04 396.686
L1428.08 391.754
L1429.13 396.034
L1431.22 378.739
L1432.27 396.62
L1433.32 372.996
L1434.36 371.475
L1435.41 382.475
L1436.46 365.351
L1437.5 390.25
L1438.55 362.593
L1439.6 370.801
L1440.64 381.115
L1441.69 372.009
L1442.74 385.719
L1443.78 353.773
L1444.83 391.523
L1445.88 362.247
L1446.93 377.473
L1447.97 363.286
L1449.02 354.639
L1450.07 395.625
L1451.11 360.557
L1452.16 394.511
L1453.21 363.474
L1454.25 376.159
L1455.3 379.697
L1456.35 375.869
L1457.39 384.038
L1458.44 370.478
L1459.49 396.284
L1460.53 381.789
L1461.58 396.645
L1462.63 380.09
L1463.67 391.492
L1464.72 388.047
L1465.77 397.547
L1466.81 377.243
L1467.86 393.845
L1468.91 379.283
L1469.95 385.379
L1471 373.658
L1472.05 374.94
L1473.1 385.483
L1474.14 357.843
L1475.19 397.939
L1476.24 360.232
L1477.28 379.818
L1478.33 364.374
L1479.38 364.222
L1480.42 377.675
L1481.47 350.355
L1482.52 390.928
L1483.56 352.478
L1484.61 372.957
L1485.66 378.115
L1486.7 364.04
L1487.75 387.023
L1488.8 363.06
L1489.84 387.247
L1490.89 376.383
L1491.94 387.212
L1492.98 373.225
L1494.03 369.259
L1495.08 395.4
L1496.13 379.206
L1497.17 389.301
L1498.22 383.267
L1499.27 378.851
L1500.31 390.633
L1501.36 391.508
L1502.41 392.116
L1503.45 393.87
L1504.5 381.047
L1505.55 384.147
L1506.59 398.164
L1507.64 386
L1508.69 397.594
L1509.73 378.538
L1510.78 377.529
L1511.83 394.904
L1512.87 380.807
L1513.92 396.741
L1514.97 369.305
L1516.01 375.429
L1517.06 387.495
L1518.11 374.354
L1519.15 393.047
L1520.2 363.92
L1521.25 378.694
L1522.3 375.527
L1523.34 370.207
L1524.39 385.088
L1525.44 356.154
L1526.48 385.495
L1527.53 363.41
L1528.58 362.154
L1529.62 387.804
L1530.67 358.585
L1531.72 388.005
L1532.76 375.325
L1533.81 378.322
L1534.86 381.693
L1535.9 372.141
L1536.95 397.519
L1538 376.796
L1539.04 389.372
L1540.09 383.025
L1541.14 380.245
L1542.18 394.988
L1543.23 382.944
L1544.28 387.436
L1545.32 396.264
L1546.37 397.517
L1547.42 395.998
L1548.47 396.768
L1549.51 392.539
L1550.56 391.201
L1551.61 398.305
L1552.65 392.851
L1553.7 398.134
L1554.75 379.965
L1555.79 381.745
L1556.84 396.628
L1557.89 376.889
L1558.93 393.315
L1559.98 374.232
L1561.03 371.575
L1562.07 396.815
L1563.12 379.493
L1564.17 395.9
L1565.21 367.448
L1566.26 376.964
L1567.31 383.766
L1568.35 373.451
L1569.4 391.982
L1570.45 358.507
L1572.54 385.486
L1573.59 372.887
L1574.64 390.432
L1575.68 362.771
L1576.73 379.744
L1577.78 381.893
L1578.82 375.753
L1579.87 388.872
L1580.92 365.567
L1581.96 380.481
L1583.01 382.816
L1584.06 380.386
L1585.1 395.07
L1586.15 375.564
L1587.2 387.426
L1588.24 391.985
L1589.29 389.493
L1590.34 390.778
L1591.38 376.638
L1592.43 384.187
L1593.48 392.796
L1594.52 374.436
L1595.57 389.413
L1596.62 384.975
L1597.67 371.105
L1598.71 398.332
L1599.76 366.973
L1600.81 373.688
L1601.85 383.697
L1602.9 369.406
L1603.95 391.125
L1604.99 355.149
L1606.04 377.237
L1607.09 368.354
L1608.13 365.446
L1609.18 381.655
L1610.23 347.5
L1611.27 381.234
L1612.32 368.283
L1613.37 378.675
L1614.41 369.107
L1615.46 354.986
L1616.51 398.064
L1617.55 370.341
L1618.6 394.666
L1619.65 361.281
L1620.7 361.965
L1621.74 398.42
L1622.79 383.746
L1623.84 397.59
L1624.88 372.865
L1625.93 375.409
L1626.98 387.848
L1628.02 391.371
L1629.07 390.615
L1630.12 386.549
L1631.16 383.574
L1632.21 380.125
L1633.26 391.575
L1634.3 396.738
L1635.35 397.189
L1636.4 375.172
L1637.44 370.172
L1638.49 391.127
L1639.54 385.309
L1640.58 396.222
L1641.63 369.506
L1642.68 365.588
L1643.72 391.551
L1644.77 384.934
L1645.82 389.522
L1646.87 360.489
L1647.91 366.029
L1648.96 397.612
L1650.01 380.168
L1651.05 391.69
L1652.1 364.692
L1653.15 370.817
L1654.19 393.929
L1655.24 383.801
L1656.29 389.836
L1657.33 369.229
L1658.38 376.809
L1659.43 388.345
L1660.47 384.935
L1661.52 393.314
L1662.57 371.254
L1664.66 390.216
L1665.71 382.071
L1666.75 395.446
L1667.8 379.068
L1668.85 379.524
L1669.9 397.119
L1670.94 381.938
L1671.99 383.711
L1673.04 388.427
L1674.08 373.365
L1675.13 383.685
L1676.18 374.557
L1677.22 370.485
L1678.27 396.361
L1679.32 363.043
L1680.36 385.051
L1681.41 360.734
L1682.46 356.662
L1683.5 390.525
L1684.55 352.065
L1685.6 396.121
L1686.64 350.614
L1687.69 360.708
L1688.74 369.017
L1689.78 349.277
L1690.83 381.889
L1691.88 334.995
L1692.92 368.618
L1693.97 353.626
L1695.02 360.131
L1696.07 370.134
L1697.11 336.65
L1698.16 384.526
L1699.21 359.014
L1700.25 387.98
L1701.3 356.238
L1702.35 347.311
L1703.39 396.885
L1704.44 368.598
L1705.49 396.633
L1706.53 363.676
L1707.58 370.158
L1708.63 396.971
L1710.72 388.286
L1711.77 376.232
L1712.81 382.449
L1713.86 392.237
L1714.91 392.097
L1715.95 389.233
L1717 382.934
L1718.05 375.082
L1719.1 372.398
L1720.14 384.681
L1721.19 394.009
L1722.24 396.568
L1723.28 373.233
L1724.33 359.649
L1725.38 382.882
L1726.42 390.728
L1727.47 396.869
L1728.52 373.135
L1729.56 361.016
L1730.61 389.129
L1731.66 392.551
L1732.7 396.851
L1733.75 372.553
L1734.8 370.712
L1735.84 390.882
L1736.89 388.389
L1737.94 396.223
L1738.98 375.172
L1740.03 370.066
L1741.08 381.995
L1743.17 392.146
L1744.22 383.308
L1745.27 361.892
L1746.31 378.433
L1747.36 386.587
L1748.41 377.849
L1749.45 387.935
L1750.5 357.575
L1751.55 377.717
L1752.59 376.695
L1753.64 362.5
L1754.69 389.569
L1755.73 354.191
L1756.78 376.611
L1757.83 361.993
L1758.87 357.858
L1759.92 384.09
L1760.97 344.366
L1762.01 385.014
L1763.06 350.679
L1764.11 356.267
L1765.15 372.791
L1766.2 341.104
L1767.25 397.773
L1768.3 335.12
L1769.34 352.293
L1770.39 363.051
L1771.44 345.242
L1772.48 391.433
L1773.53 323.54
L1774.58 355.856
L1775.62 370.663
L1776.67 357.861
L1777.72 376.722
L1778.76 332.379
L1779.81 372.679
L1780.86 370.209
L1781.9 373.608
L1782.95 359.176
L1784 336.921
L1785.04 379.032
L1786.09 368.909
L1787.14 385.089
L1788.18 362.876
L1789.23 351.399
L1790.28 389.758
L1791.32 381.99
L1792.37 387.63
L1793.42 359.021
L1794.47 367.566
L1795.51 395.311
L1796.56 397.87
L1797.61 370.804
L1798.65 359.091
L1799.7 382.828
L1800.75 391.773
L1801.79 373.617
L1802.84 365.512
L1803.89 387.921
L1804.93 392.005
L1805.98 378.416
L1807.03 351.476
L1808.07 369.113
L1809.12 383.414
L1810.17 390.017
L1811.21 360.077
L1812.26 347.073
L1813.31 397.106
L1814.35 370.314
L1815.4 385.469
L1816.45 331.92
L1817.5 356.388
L1818.54 374.503
L1819.59 364.624
L1820.64 372.805
L1821.68 338.589
L1822.73 378.273
L1823.78 370.499
L1824.82 381.376
L1825.87 368.441
L1826.92 364.035
L1827.96 396.917
L1829.01 372.974
L1830.06 395.302
L1831.1 379.379
L1832.15 377.784
L1833.2 394.708
L1834.24 385.111
L1835.29 383.357
L1836.34 392.513
L1837.38 378.185
L1838.43 382.329
L1839.48 384.268
L1840.52 355.429
L1841.57 384.487
L1842.62 357.832
L1843.67 365.345
L1844.71 363.131
L1845.76 326.347
L1846.81 396.598
L1847.85 338.441
L1848.9 373.514
L1849.95 323.712
L1850.99 318.629
L1852.04 385.971
L1853.09 338.565
L1854.13 385.544
L1855.18 299.489
L1856.23 344.053
L1857.27 357.464
L1858.32 354.089
L1859.37 337.171
L1860.41 294.89
L1861.46 378.454
L1862.51 337.963
L1863.55 379.372
L1864.6 321.481
L1865.65 319.36
L1866.7 394.851
L1867.74 364.091
L1868.79 372.365
L1869.84 321.21
L1870.88 362.86
L1871.93 381.358
L1872.98 397.2
L1874.02 338.423
L1875.07 344.837
L1876.12 396.457
L1877.16 384.067
L1878.21 364.563
L1879.26 335.796
L1880.3 374.277
L1882.4 395.695
L1883.44 346.245
L1884.49 359.062
L1885.54 394.614
L1886.58 388.972
L1887.63 366.647
L1888.68 351.984
L1889.72 387.39
L1890.77 382.283
L1891.82 391.21
L1892.87 354.615
L1893.91 364.223
L1894.96 394.201
L1896.01 377.92
L1897.05 386.354
L1898.1 360.832
L1899.15 371.761
L1900.19 393.818
L1901.24 389.918
L1902.29 391.434
L1903.33 375.283
L1904.38 385.58
L1905.43 386.399
L1906.47 376.73
L1907.52 395.975
L1908.57 370.819
L1909.61 377.564
L1910.66 379.234
L1911.71 352.863
L1912.75 385.856
L1913.8 361.082
L1914.85 364.769
L1915.9 369.333
L1916.94 342.355
L1917.99 392.039
L1919.04 345.799
L1920.08 374.974
L1921.13 345.128
L1922.18 329.953
L1923.22 395.752
L1924.27 346.483
L1925.32 393.007
L1926.36 329.108
L1927.41 337.129
L1928.46 386.521
L1929.5 362.448
L1930.55 373.294
L1931.6 318.056
L1932.64 358.11
L1933.69 372.562
L1934.74 372.257
L1935.78 350.225
L1936.83 312.675
L1937.88 359.264
L1938.92 371.181
L1939.97 386.424
L1941.02 352.461
L1942.07 327.209
L1943.11 377.68
L1944.16 379.387
L1945.21 390.147
L1946.25 336.302
L1947.3 343.861
L1948.35 395.498
L1949.39 376.448
L1950.44 370.855
L1951.49 320.683
L1953.58 384.994
L1954.63 384.206
L1955.67 346.918
L1956.72 327.218
L1957.77 376.631
L1958.81 367.362
L1959.86 398.378
L1960.91 339.75
L1961.95 347.765
L1963 387.292
L1964.05 370.447
L1965.09 375.648
L1966.14 337.712
L1967.19 380.96
L1968.24 365.774
L1969.28 391.953
L1970.33 343.511
L1971.38 341.737
L1972.42 384.056
L1973.47 359.856
L1974.52 385.237
L1975.56 332.023
L1976.61 369.944
L1977.66 364.395
L1978.7 365.039
L1979.75 371.942
L1980.8 352.749
L1981.84 388.444
L1982.89 355.077
L1983.94 390.927
L1984.98 351.291
L1986.03 373.158
L1987.08 359.383
L1988.12 341.825
L1989.17 394.963
L1990.22 349.983
L1991.27 370.66
L1992.31 360.65
L1993.36 345.739
L1994.41 386.871
L1995.45 369.556
L1996.5 381.371
L1997.55 367.788
L1998.59 362.543
L1999.64 387.184
L2000.69 371.938
L2001.73 397.507
L2002.78 354.88
L2003.83 346.613
L2004.87 395.623
L2005.92 364.291
L2006.97 394.45
L2008.01 336.045
L2009.06 334.652
L2010.11 390.663
L2011.15 364.221
L2012.2 380.672
L2013.25 315.862
L2014.29 348.375
L2015.34 364.024
L2016.39 358.404
L2017.44 361.479
L2018.48 306.71
L2019.53 369.844
L2020.58 358.82
L2021.62 380.471
L2022.67 329.771
L2023.72 324.448
L2024.76 391.456
L2025.81 353.719
L2026.86 370.251
L2027.9 294.083
L2028.95 335.738
L2030 361.099
L2031.04 343.961
L2032.09 358.977
L2033.14 305.538
L2034.18 359.705
L2035.23 358.515
L2036.28 374.955
L2037.32 347.893
L2038.37 336.28
L2039.42 396.544
L2040.47 368.994
L2041.51 381.432
L2042.56 335.738
L2043.61 366.644
L2044.65 376.475
L2045.7 385.128
L2046.75 353.426
L2047.79 337.788
L2048.84 392.817
L2049.89 362.575
L2050.93 395.581
L2051.98 341.686
L2053.03 348.958
L2054.07 381.696
L2055.12 361.415
L2056.17 379.723
L2057.21 331.383
L2058.26 368.178
L2059.31 357.233
L2060.35 359.387
L2061.4 362.837
L2062.45 330.226
L2063.49 394.17
L2064.54 328.911
L2065.59 357.973
L2067.68 327.015
L2068.73 393.358
L2069.78 321.347
L2070.82 373.02
L2071.87 340.32
L2072.92 342.409
L2073.96 367.011
L2075.01 332.845
L2076.06 396.756
L2077.1 341.55
L2078.15 380.135
L2079.2 330.291
L2080.24 337.813
L2081.29 377.647
L2082.34 338.859
L2083.38 389.588
L2084.43 322.625
L2086.52 369.375
L2087.57 357.584
L2088.62 376.671
L2089.67 327.815
L2090.71 368.098
L2091.76 371.631
L2092.81 374.399
L2093.85 361.298
L2094.9 331.708
L2095.95 375.624
L2096.99 371.152
L2098.04 383.02
L2099.09 345.548
L2100.13 330.14
L2101.18 380.71
L2102.23 361.142
L2103.27 394.769
L2104.32 326.306
L2105.37 317.917
L2106.41 393.427
L2107.46 350.689
L2108.51 392.435
L2109.55 307.629
L2110.6 316.103
L2111.65 398.366
L2112.69 356.8
L2113.74 370.534
L2114.79 323.658
L2115.84 357.165
L2116.88 369.613
L2117.93 395.024
L2118.98 333.099
L2120.02 330.427
L2121.07 385.417
L2122.12 349.664
L2123.16 376.208
L2124.21 305.302
L2125.26 338.164
L2126.3 367.171
L2127.35 374.37
L2128.4 346.936
L2129.44 314.054
L2130.49 392.301
L2131.54 352.579
L2132.58 394.614
L2133.63 313.426
L2134.68 341.89
L2135.72 358.649
L2136.77 340.384
L2137.82 361.23
L2138.87 295.494
L2139.91 366.818
L2140.96 331.212
L2142.01 347.737
L2143.05 334.8
L2144.1 296.704
L2145.15 390.853
L2146.19 324.148
L2147.24 362.74
L2148.29 329.72
L2149.33 328.193
L2150.38 383.511
L2151.43 332.102
L2152.47 395.397
L2153.52 334.958
L2154.57 363.196
L2155.61 353.188
L2156.66 337.435
L2157.71 377.038
L2158.75 335.053
L2159.8 383.931
L2160.85 328.39
L2161.89 332.306
L2162.94 386.241
L2163.99 344.2
L2165.04 397.581
L2166.08 332.633
L2167.13 342.451
L2168.18 378.755
L2169.22 354.683
L2170.27 378.785
L2171.32 322.657
L2172.36 357.072
L2173.41 356.207
L2174.46 357.84
L2175.5 357.749
L2176.55 303.855
L2177.6 362.246
L2178.64 356.838
L2179.69 378.541
L2180.74 328.71
L2181.78 303.115
L2182.83 378.571
L2183.88 360.902
L2184.92 395.715
L2185.97 316.216
L2187.02 323.707
L2188.07 392.816
L2189.11 374.794
L2190.16 369.432
L2191.21 324.509
L2193.3 391.7
L2194.35 388.03
L2195.39 327.794
L2196.44 332.034
L2197.49 387.195
L2198.53 383.633
L2199.58 363.487
L2200.63 309.229
L2201.67 342.37
L2202.72 395.724
L2203.77 392.869
L2204.81 343.196
L2205.86 322.767
L2206.91 372.786
L2207.95 370.948
L2209 390.749
L2210.05 312.791
L2211.09 311.282
L2212.14 397.71
L2213.19 337.127
L2214.24 395.826
L2215.28 299.448
L2216.33 310.302
L2217.38 372.8
L2218.42 324.332
L2219.47 380.171
L2220.52 286.529
L2221.56 336.402
L2222.61 336.538
L2223.66 328.307
L2224.7 343.325
L2225.75 273.394
L2226.8 369.433
L2227.84 309.206
L2228.89 344.567
L2229.94 315.174
L2230.98 300.015
L2232.03 365.69
L2233.08 290.074
L2234.12 385.656
L2235.17 297.55
L2236.22 343.091
L2237.27 312.622
L2238.31 295.413
L2239.36 377.092
L2240.41 300.505
L2241.45 379.423
L2242.5 303.567
L2243.55 329.465
L2244.59 361.37
L2245.64 341.392
L2246.69 363.846
L2247.73 306.577
L2248.78 359.408
L2249.83 359.415
L2250.87 376.627
L2251.92 335.783
L2252.97 301.177
L2254.01 357.158
L2255.06 380.07
L2256.11 387.45
L2257.15 347.912
L2258.2 318.686
L2259.25 346.25
L2260.29 393.251
L2261.34 383.964
L2262.39 344.185
L2263.44 322.406
L2265.53 386.641
L2266.58 369.292
L2267.62 327.417
L2268.67 322.28
L2269.72 367.926
L2270.76 385.297
L2272.86 313.781
L2273.9 342.328
L2274.95 388.599
L2276 372.069
L2277.04 300.641
L2278.09 292.948
L2279.14 360.583
L2280.18 384.238
L2281.23 348.003
L2282.28 274.247
L2283.32 301.412
L2284.37 392.593
L2285.42 382.28
L2286.47 308.945
L2287.51 252.32
L2288.56 348.294
L2289.61 328.461
L2290.65 376.249
L2291.7 276.518
L2292.75 234.935
L2293.79 381.87
L2294.84 318.53
L2295.89 396.388
L2296.93 255.798
L2297.98 280.095
L2299.03 371.379
L2300.07 331.695
L2301.12 348.353
L2302.17 254.103
L2303.21 341.875
L2304.26 326.808
L2305.31 343.989
L2307.4 273.419
L2308.45 393.015
L2309.49 306.058
L2310.54 373.025
L2311.59 302.862
L2312.64 316.764
L2313.68 361.21
L2314.73 307.52
L2315.78 395.684
L2316.82 318.655
L2317.87 366.075
L2318.92 321.78
L2319.96 313.913
L2321.01 390.891
L2322.06 330.759
L2323.1 397.484
L2324.15 308.739
L2325.2 326.438
L2326.24 387.524
L2327.29 346.702
L2328.34 363.825
L2329.38 289.432
L2330.43 317.638
L2331.48 380.473
L2332.52 372.149
L2333.57 338.198
L2334.62 265.609
L2335.67 309.846
L2336.71 393.723
L2337.76 389.502
L2338.81 317.54
L2339.85 288.14
L2340.9 349.267
L2341.95 382.265
L2342.99 340.546
L2344.04 278.197
L2345.09 312.79
L2346.13 387.875
L2347.18 383.124
L2348.23 299.771
L2349.27 260.587
L2350.32 331.166
L2351.37 391.649
L2352.41 348.299
L2353.46 260.141
L2354.51 278.415
L2355.55 367.323
L2356.6 395.951
L2357.65 310.403
L2358.69 239.955
L2359.74 296.905
L2360.79 397.852
L2361.84 395.527
L2362.88 284.064
L2363.93 233.756
L2366.02 380.449
L2367.07 388.506
L2368.12 279.185
L2369.16 240.425
L2370.21 332.853
L2371.26 378.167
L2372.3 386.972
L2373.35 284.835
L2374.4 264.948
L2375.44 352.977
L2376.49 384.472
L2377.54 361.219
L2378.58 278.533
L2379.63 294.896
L2380.68 396.191
L2382.77 348.523
L2383.82 265.284
L2384.86 322.123
L2385.91 357.238
L2386.96 339.182
L2388.01 354.34
L2389.05 280.961
L2390.1 369.477
L2391.15 322.635
L2392.19 344.238
L2393.24 330.731
L2394.29 301.902
L2395.33 372.501
L2396.38 293.196
L2397.43 375.557
L2398.47 299.041
L2399.52 337.748
L2401.61 276.806
L2402.66 397.176
L2403.71 300.749
L2404.75 395.215
L2405.8 261.931
L2406.85 278.811
L2407.89 381.68
L2408.94 343.89
L2409.99 331.359
L2411.04 256.535
L2413.13 376.478
L2414.18 377.401
L2415.22 283.459
L2416.27 272.083
L2417.32 366.447
L2418.36 397.622
L2419.41 311.79
L2420.46 251.661
L2421.5 294.159
L2422.55 391.299
L2423.6 359.625
L2424.64 282.648
L2425.69 255.923
L2426.74 326.316
L2427.78 373.084
L2428.83 323.603
L2429.88 264.557
L2430.92 268.047
L2431.97 337.045
L2433.02 352.318
L2434.06 298.894
L2435.11 237.16
L2436.16 263.259
L2437.21 339.222
L2438.25 365.278
L2439.3 312.283
L2440.35 232.157
L2441.39 252.467
L2442.44 345.367
L2443.49 395.905
L2444.53 326.954
L2445.58 241.094
L2446.63 257.727
L2447.67 363.742
L2448.72 395.629
L2449.77 304.441
L2450.81 225.979
L2451.86 285.291
L2452.91 396.527
L2453.95 389.886
L2455 275.514
L2456.05 241.878
L2457.09 352.999
L2458.14 361.516
L2459.19 363.251
L2460.24 249.148
L2461.28 289.38
L2462.33 361.442
L2463.38 332.504
L2464.42 333.086
L2465.47 240.661
L2466.52 341.077
L2467.56 317.965
L2468.61 341.606
L2469.66 314.885
L2470.7 284.77
L2471.75 370.75
L2472.8 281.401
L2473.84 363.637
L2474.89 299.253
L2475.94 334.917
L2476.98 307.823
L2478.03 256.256
L2479.08 380.489
L2480.12 314.772
L2481.17 374.358
L2482.22 279.887
L2483.26 269.668
L2484.31 375.202
L2485.36 373.668
L2486.41 340.069
L2487.45 251.895
L2488.5 288.315
L2489.55 365.681
L2490.59 360.972
L2491.64 272.787
L2492.69 243.882
L2493.73 314.194
L2494.78 371.158
L2495.83 310.661
L2496.87 237.333
L2497.92 253.058
L2498.97 338.96
L2500.01 360.263
L2501.06 263.654
L2502.11 210.326
L2503.15 242.363
L2504.2 334.626
L2505.25 311.208
L2506.29 221.129
L2507.34 184.24
L2509.44 343.365
L2510.48 298.679
L2511.53 197.59
L2512.58 175.819
L2513.62 286.881
L2514.67 352.403
L2515.72 302.474
L2516.76 181.857
L2517.81 184.999
L2518.86 288.747
L2519.9 344.819
L2520.95 275.33
L2522 174.492
L2523.04 218.944
L2524.09 321.03
L2525.14 354.278
L2526.18 261.379
L2527.23 209.566
L2528.28 274.103
L2529.32 361.011
L2530.37 331.569
L2531.42 237.353
L2532.46 229.607
L2533.51 323.247
L2534.56 386.746
L2536.65 236.685
L2537.7 256.562
L2538.75 385.445
L2539.79 398.399
L2540.84 329.34
L2541.89 251.39
L2542.93 340.587
L2543.98 347.991
L2545.03 340.293
L2546.07 346.974
L2547.12 285.52
L2548.17 376.627
L2549.21 321.312
L2550.26 319.851
L2551.31 346.054
L2552.35 328.719
L2553.4 383.428
L2554.45 271.055
L2556.54 370.704
L2557.59 366.314
L2558.64 319.649
L2559.68 226.566
L2560.73 286.932
L2561.78 376.985
L2562.82 358.647
L2563.87 254.913
L2564.92 233.786
L2565.96 313.067
L2567.01 360.671
L2569.1 189.848
L2570.15 233.552
L2571.2 331.814
L2572.24 319.506
L2573.29 198.498
L2574.34 160.162
L2576.43 323.519
L2577.48 235.736
L2578.52 136.134
L2579.57 158.866
L2580.62 298.316
L2581.66 316.016
L2582.71 187.611
L2583.76 100.923
L2584.81 179.645
L2585.85 310.288
L2586.9 265.062
L2587.95 136.041
L2588.99 87.8714
L2590.04 218.913
L2591.09 306.962
L2592.13 244.902
L2593.18 109.452
L2594.23 112.748
L2595.27 243.164
L2596.32 304.048
L2597.37 243.776
L2598.41 146.773
L2599.46 189.815
L2600.51 268.044
L2601.55 288.326
L2602.6 196.12
L2603.65 157.905
L2604.69 224.57
L2605.74 304.655
L2606.79 291.99
L2607.84 186.494
L2608.88 170.975
L2609.93 250.262
L2610.98 351.67
L2612.02 311.451
L2613.07 219.968
L2614.12 208.483
L2615.16 319.168
L2616.21 398.407
L2617.26 346.274
L2618.3 249.064
L2619.35 255.012
L2620.4 379.816
L2621.44 361.772
L2622.49 367.786
L2623.54 273.197
L2624.58 321.712
L2625.63 354.119
L2626.68 310.233
L2627.72 381.917
L2628.77 307.225
L2629.82 374.275
L2630.86 288.323
L2631.91 269.508
L2632.96 377.495
L2634.01 365.124
L2635.05 366.864
L2636.1 259.324
L2637.15 271.36
L2638.19 333.729
L2639.24 341.767
L2640.29 266.166
L2641.33 228.15
L2642.38 274.04
L2643.43 303.829
L2644.47 254.884
L2645.52 180.238
L2646.57 208.828
L2647.61 277.823
L2648.66 279.829
L2649.71 188.183
L2650.75 139.507
L2652.85 276.182
L2653.89 236.8
L2654.94 112.566
L2655.99 131.523
L2657.04 227.917
L2658.08 279.577
L2660.18 50.6755
L2661.22 109.71
L2662.27 242.898
L2663.32 271.923
L2664.36 131.519
L2665.41 50.4386
L2666.46 128.931
L2667.5 275.872
L2668.55 243.65
L2669.6 108.176
L2670.64 50.7908
L2671.69 186.808
L2671.69 186.808" style="fill:none;stroke:#0000ff;stroke-linecap:square;"/>
   </g>
   <g id="line2d_2">
    <path clip-path="url(#p3c807a1472)" d="
M422.1 384.222
L423.147 385.695
L424.194 296.189
L425.24 280.648
L426.287 352.588
L427.334 353.585
L428.381 395.98
L429.428 296.293
L430.474 278.533
L431.521 388.683
L432.568 312.561
L433.615 385.53
L434.662 310.88
L435.709 319.611
L436.755 335.967
L437.802 301.086
L438.849 393.839
L439.896 310.723
L440.943 397.484
L441.989 261.29
L443.036 294.935
L444.083 366.529
L445.13 318.073
L446.177 334.197
L447.223 237.709
L448.27 306.448
L449.317 350.824
L450.364 373.346
L451.411 284.114
L452.457 228.192
L453.504 321.981
L454.551 381.196
L455.598 354.691
L456.645 252.191
L457.691 239.026
L458.738 339.727
L459.785 362.928
L460.832 313.947
L461.879 247.951
L462.926 288.514
L463.972 341.202
L465.019 321.65
L466.066 273.282
L467.113 265.503
L468.16 328.621
L469.206 331.708
L470.253 285.241
L471.3 226.981
L472.347 289.179
L473.394 342.609
L474.44 320.229
L475.487 233.98
L476.534 220.453
L477.581 317.386
L478.628 371.204
L479.674 312.53
L480.721 198.539
L481.768 227.746
L482.815 340.888
L483.862 398.377
L485.955 199.263
L487.002 242.378
L488.049 372.564
L489.096 390.701
L490.143 293.642
L491.189 213.947
L492.236 263.948
L493.283 393.739
L494.33 398.111
L495.377 310.384
L496.423 237.094
L497.47 307.531
L498.517 389.517
L499.564 397.182
L500.611 308.751
L501.657 256.276
L502.704 356.415
L503.751 363.713
L504.798 379.908
L505.845 303.733
L506.891 293.416
L507.938 391.803
L508.985 320.528
L510.032 371.198
L511.079 315.409
L512.125 327.805
L513.172 370.297
L514.219 307.261
L515.266 398.443
L516.313 337.244
L517.36 379.439
L518.406 305.439
L519.453 306.888
L520.5 382.943
L521.547 332.037
L522.594 382.813
L523.64 269.511
L524.687 280.619
L525.734 381.796
L526.781 374.108
L527.828 355.321
L528.874 277.029
L529.921 293.755
L530.968 369.446
L532.015 369.452
L533.062 317.388
L534.108 255.838
L535.155 293.403
L536.202 351.47
L537.249 352.957
L539.342 273.271
L540.389 306.43
L541.436 319.239
L542.483 309.542
L543.53 279.179
L544.577 318.037
L545.623 344.32
L546.67 322.362
L547.717 260.41
L548.764 259.745
L549.811 347.901
L550.857 357.951
L551.904 292.774
L552.951 209.82
L553.998 287.809
L555.045 395.869
L556.091 377.853
L557.138 234.456
L558.185 180.914
L559.232 326.234
L560.279 348.188
L561.325 390.741
L562.372 212.724
L563.419 212.602
L564.466 363.516
L565.513 332.926
L566.56 342.753
L567.606 210.153
L568.653 266.179
L569.7 367.494
L571.794 294.597
L572.84 204.008
L573.887 290.299
L574.934 327.579
L575.981 349.106
L577.028 321.945
L578.074 258.82
L579.121 361.446
L580.168 343.03
L581.215 398.203
L582.262 309.411
L583.308 311.619
L584.355 352.999
L585.402 312.378
L586.449 379.755
L587.496 306.541
L589.589 360.577
L590.636 311.474
L591.683 368.104
L592.73 362.913
L593.777 394.674
L594.823 336.687
L595.87 312.626
L596.917 390.669
L597.964 367.283
L599.011 392.69
L600.057 306.293
L601.104 278.325
L602.151 335.889
L603.198 383.379
L604.245 391.915
L605.291 331.241
L606.338 282.899
L607.385 318.245
L608.432 384.207
L609.479 363.538
L610.525 307.751
L611.572 275.242
L612.619 342.817
L613.666 377.281
L614.713 358.142
L615.759 283.973
L616.806 289.011
L617.853 332.613
L618.9 349.437
L619.947 336.379
L620.994 308.524
L622.04 343.938
L623.087 314.442
L624.134 289.136
L625.181 271.17
L626.228 352.957
L627.274 392.87
L628.321 325.184
L629.368 244.294
L630.415 267.129
L631.462 393.316
L632.508 398.007
L634.602 182.22
L635.649 321.452
L636.696 330.548
L637.742 355.67
L638.789 249.238
L639.836 174.88
L640.883 323.805
L641.93 345.205
L642.976 391.106
L644.023 246.566
L645.07 269.762
L646.117 397.156
L647.164 330.804
L648.211 308.938
L649.257 212.206
L650.304 295.52
L651.351 327.222
L652.398 317.078
L653.445 309.506
L654.491 231.432
L655.538 310.266
L656.585 332.394
L657.632 384.111
L658.679 320.911
L659.725 284.756
L660.772 378.557
L661.819 320.571
L662.866 392.202
L663.913 286.997
L664.959 302.516
L666.006 345.957
L667.053 301.596
L668.1 364.153
L669.147 311.6
L671.24 374.521
L672.287 321.661
L673.334 383.122
L674.381 344.403
L675.428 366.238
L676.474 342.26
L677.521 289.964
L678.568 358.247
L679.615 359.619
L680.662 339.676
L681.708 358.607
L682.755 297.184
L683.802 308.996
L684.849 392.812
L685.896 389.801
L686.942 361.915
L687.989 321.441
L689.036 347.999
L690.083 390.36
L692.176 315.474
L693.223 301.344
L694.27 373.274
L695.317 381.024
L696.364 352.435
L697.411 306.476
L698.457 339.061
L699.504 358.23
L700.551 336.994
L701.598 307.701
L703.691 387.548
L704.738 368.267
L705.785 286.718
L706.832 257.739
L707.879 363.812
L708.925 380.324
L709.972 349.113
L711.019 248.469
L712.066 288.378
L713.113 378.257
L714.159 373.145
L716.253 203.617
L717.3 319.934
L719.393 363.574
L720.44 277.363
L721.487 249.735
L722.534 370
L723.581 359.893
L724.628 347.59
L725.674 223.575
L726.721 304.967
L727.768 346.954
L729.862 304.133
L730.908 212.935
L731.955 313.993
L733.002 331.129
L734.049 343.587
L735.096 313.242
L736.142 270.041
L737.189 371.975
L738.236 323.782
L739.283 391.881
L740.33 292.479
L741.376 296.001
L742.423 366.488
L743.47 304.235
L744.517 388.169
L745.564 291.266
L746.61 303.549
L747.657 362.783
L748.704 307.199
L749.751 374.556
L750.798 324.492
L751.845 343.962
L752.891 367.177
L753.938 322.124
L754.985 381.956
L756.032 349.15
L757.079 363.318
L758.125 359.482
L759.172 319.884
L760.219 359.538
L761.266 389.07
L762.313 387.402
L763.359 363.775
L764.406 348.176
L765.453 361.281
L766.5 381.086
L767.547 357.903
L768.593 339.117
L769.64 357.974
L770.687 390.902
L771.734 389.494
L772.781 339.331
L773.827 333.241
L774.874 352.417
L775.921 383.176
L776.968 349.129
L778.015 319.635
L779.062 336.978
L780.108 387.413
L781.155 385.071
L782.202 313.715
L783.249 291.441
L784.296 334.898
L785.342 388.719
L786.389 369.075
L787.436 307.136
L788.483 292.485
L789.53 368.93
L790.576 398.517
L792.67 287.142
L793.717 317.351
L794.764 395.99
L795.81 394.062
L796.857 318.129
L797.904 273.506
L798.951 354.441
L799.998 378.856
L801.044 393.257
L802.091 291.287
L803.138 284.437
L804.185 384.436
L805.232 358.022
L806.279 371.76
L807.325 257.401
L808.372 304.263
L809.419 376.87
L810.466 325.647
L811.513 345.725
L812.559 254.289
L813.606 322.444
L814.653 336
L815.7 330.555
L816.747 319.569
L817.793 265.514
L818.84 371.919
L819.887 283.689
L820.934 346.276
L821.981 302.427
L823.027 265.702
L824.074 381.47
L825.121 286.726
L826.168 366.045
L827.215 301.37
L828.262 312.162
L829.308 352.427
L830.355 313.995
L831.402 390.907
L832.449 322.84
L833.496 377.517
L834.542 343.045
L835.589 333.945
L836.636 383.644
L837.683 365.499
L838.73 376.983
L839.776 340.138
L840.823 362.38
L841.87 386.992
L842.917 395.15
L843.964 361.627
L845.01 343.359
L846.057 383.077
L847.104 386.96
L848.151 369.066
L849.198 335.826
L850.244 353.223
L851.291 379.908
L852.338 382.384
L854.432 330.52
L855.479 357.646
L856.525 379.904
L857.572 383.587
L858.619 335.072
L859.666 320.911
L860.713 345.446
L861.759 388.595
L862.806 384.932
L863.853 335.839
L864.9 315.192
L865.947 342.783
L866.993 384.926
L868.04 362.516
L869.087 327.788
L870.134 323.868
L871.181 382.43
L872.227 397.214
L873.274 354.061
L874.321 304.225
L875.368 332.374
L876.415 382.534
L877.461 387.107
L878.508 342.434
L879.555 287.715
L880.602 358.503
L881.649 366.157
L882.696 394.478
L883.742 302.775
L884.789 295.308
L885.836 393.72
L886.883 331.401
L887.93 389.663
L888.976 277.91
L891.07 353.571
L892.117 314.076
L893.164 363.186
L894.21 269.872
L895.257 340.642
L896.304 312.295
L897.351 318.766
L898.398 345.535
L899.444 272.932
L900.491 365.234
L901.538 308.618
L902.585 336.428
L903.632 357.293
L904.678 317.38
L905.725 386.938
L906.772 327.027
L907.819 371
L908.866 349.897
L909.913 364.299
L910.959 353.382
L912.006 333.157
L913.053 393.184
L914.1 355.91
L915.147 396.313
L916.193 337.433
L917.24 344.81
L918.287 384.608
L919.334 379.073
L920.381 364.074
L921.427 323.791
L922.474 365.358
L924.568 391.528
L925.615 335.597
L926.661 331.356
L927.708 395.53
L928.755 379.927
L929.802 361.568
L930.849 300.669
L932.942 379.409
L933.989 377.671
L935.036 345.23
L936.083 294.924
L937.13 351.816
L938.176 388.409
L939.223 397.745
L940.27 326.172
L941.317 324.671
L942.364 374.244
L943.41 386.668
L944.457 368.8
L945.504 320.42
L946.551 343.824
L947.598 396.12
L948.644 390.711
L949.691 344.387
L950.738 315.059
L952.832 385.035
L953.878 395.645
L954.925 345.076
L955.972 307.583
L957.019 359.791
L959.113 390.464
L960.159 337.369
L961.206 306.372
L962.253 377.791
L963.3 354.829
L964.347 377.804
L965.393 317.77
L966.44 307.212
L967.487 393.613
L968.534 324.453
L969.581 384.965
L970.627 304.444
L971.674 315.116
L972.721 368.168
L973.768 301.038
L974.815 396.363
L975.861 301.493
L976.908 325.021
L977.955 342.246
L979.002 314.685
L980.049 387.634
L981.095 312.338
L982.142 364.913
L983.189 334.051
L985.283 374.786
L986.33 354.124
L987.376 362.526
L988.423 333.348
L989.47 387.088
L990.517 350.016
L991.564 390.759
L992.61 328.469
L993.657 334.775
L994.704 396.477
L995.751 367.711
L996.798 364.874
L997.844 335.591
L998.891 372.747
L999.938 364.517
L1000.98 392.803
L1002.03 321.544
L1003.08 324.989
L1004.13 397.189
L1005.17 356.548
L1006.22 370.954
L1007.27 308.353
L1008.31 333.833
L1009.36 378.562
L1010.41 377.612
L1011.45 346.618
L1012.5 303.15
L1013.55 354.612
L1015.64 392.986
L1016.69 336.086
L1017.73 312.225
L1018.78 374.593
L1019.83 386.99
L1020.87 380.673
L1021.92 317.181
L1022.97 332.159
L1024.01 391.946
L1025.06 379.888
L1026.11 366.139
L1027.16 307.141
L1028.2 336.669
L1029.25 391.647
L1030.3 371.246
L1031.34 358.426
L1032.39 310.636
L1033.44 340.011
L1034.48 378.022
L1035.53 373.261
L1036.58 354.877
L1037.62 306.573
L1038.67 354.598
L1039.72 364.512
L1040.76 368.813
L1041.81 345.004
L1042.86 303.831
L1043.9 374.097
L1044.95 350.257
L1046 367.769
L1047.04 331.669
L1048.09 309.057
L1049.14 386.762
L1050.18 337.134
L1051.23 374.616
L1052.28 332.982
L1053.33 326.686
L1054.37 394.659
L1055.42 338.941
L1056.47 394.769
L1057.51 342.748
L1058.56 352.859
L1059.61 369.325
L1060.65 355.712
L1061.7 392.437
L1062.75 356.886
L1063.79 390.03
L1064.84 358.246
L1065.89 379.453
L1067.98 372.707
L1069.03 365.822
L1070.07 347.555
L1071.12 390.409
L1072.17 367.791
L1073.21 398.016
L1074.26 346.166
L1075.31 362.516
L1076.36 383.552
L1077.4 375.513
L1078.45 354.073
L1079.5 325.603
L1080.54 377.608
L1081.59 356.899
L1082.64 386.59
L1083.68 328.361
L1084.73 321.22
L1085.78 394.64
L1086.82 355.852
L1087.87 377.049
L1088.92 312.937
L1089.96 337.249
L1091.01 373.877
L1092.06 377.162
L1093.1 344.54
L1094.15 301.453
L1095.2 371.244
L1096.24 361.713
L1097.29 396.256
L1098.34 318.681
L1099.38 313.216
L1100.43 394.786
L1101.48 363.411
L1102.53 378.336
L1103.57 308.984
L1104.62 336.806
L1105.67 386.986
L1106.71 363.393
L1107.76 360.593
L1108.81 308.846
L1109.85 342.31
L1110.9 386.59
L1111.95 374.058
L1112.99 366.747
L1114.04 329.52
L1115.09 355.099
L1116.13 388.615
L1117.18 387.133
L1119.27 330.311
L1120.32 369.189
L1121.37 369.558
L1122.41 371.692
L1123.46 363.604
L1124.51 325.736
L1125.55 364.032
L1126.6 370.388
L1127.65 364.828
L1128.7 368.804
L1129.74 342.299
L1130.79 377.851
L1131.84 367.601
L1132.88 383.635
L1133.93 363.355
L1134.98 355.432
L1136.02 392.97
L1137.07 364.984
L1138.12 393.605
L1139.16 361.69
L1140.21 378.608
L1141.26 361.372
L1142.3 367.082
L1143.35 383.085
L1144.4 366.445
L1145.44 387.661
L1146.49 344.973
L1147.54 385.294
L1148.58 370.469
L1149.63 382.313
L1150.68 350.976
L1151.73 344.848
L1152.77 390.34
L1153.82 360.328
L1154.87 391.536
L1155.91 328.783
L1156.96 356.197
L1158.01 378.121
L1159.05 368.31
L1160.1 355.373
L1161.15 321.534
L1162.19 370.29
L1163.24 360.111
L1164.29 382.194
L1165.33 341.218
L1166.38 324.624
L1167.43 382.594
L1168.47 367.635
L1169.52 387.747
L1170.57 338.384
L1171.61 347.253
L1172.66 381.286
L1173.71 377.896
L1174.75 355.131
L1175.8 313.333
L1176.85 364.182
L1177.9 356.062
L1178.94 370.399
L1179.99 344.871
L1181.04 312.369
L1182.08 381.066
L1183.13 354.706
L1184.18 389.808
L1185.22 327.913
L1186.27 330.777
L1187.32 387.67
L1188.36 348.642
L1189.41 387.144
L1190.46 317.365
L1192.55 373.7
L1193.6 357.52
L1194.64 372.361
L1195.69 331.915
L1196.74 376.499
L1197.78 364.215
L1198.83 371.765
L1199.88 367.433
L1200.93 354.497
L1201.97 387.854
L1203.02 372.688
L1204.07 390.545
L1205.11 381.487
L1206.16 382.01
L1207.21 396.011
L1208.25 392.738
L1209.3 391.336
L1210.35 391.543
L1211.39 392.829
L1212.44 383.695
L1213.49 395.606
L1214.53 389.704
L1215.58 391.44
L1216.63 388.827
L1217.67 379.592
L1218.72 382.065
L1219.77 396.854
L1220.81 390.031
L1221.86 396.035
L1222.91 373.817
L1223.95 374.437
L1225 392.199
L1226.05 390.986
L1227.1 383.744
L1228.14 363.442
L1229.19 375.478
L1230.24 383.362
L1231.28 380.954
L1232.33 368.637
L1233.38 345.476
L1234.42 378.289
L1235.47 366.581
L1236.52 386.623
L1237.56 353.777
L1238.61 346.426
L1239.66 392.48
L1240.7 359.612
L1241.75 384.599
L1242.8 334.036
L1243.84 357.057
L1244.89 364.98
L1245.94 369.418
L1246.98 363.932
L1248.03 333.316
L1249.08 396.077
L1250.13 357.47
L1251.17 395.439
L1252.22 333.215
L1253.27 356.699
L1254.31 356.582
L1255.36 352.405
L1256.41 367.16
L1257.45 315.842
L1258.5 378.163
L1259.55 346.032
L1260.59 366.907
L1261.64 349.322
L1262.69 341.008
L1263.73 391.579
L1264.78 350.135
L1265.83 395.51
L1266.87 345.43
L1267.92 364.479
L1268.97 372.22
L1270.01 354.122
L1271.06 398.187
L1272.11 365.239
L1273.15 383.246
L1274.2 383.537
L1275.25 382.962
L1276.3 389.976
L1277.34 388.234
L1278.39 392.095
L1279.44 380.112
L1280.48 392.955
L1281.53 387.426
L1282.58 388.512
L1283.62 395.721
L1284.67 385.898
L1285.72 395.67
L1286.76 395.928
L1287.81 394.273
L1288.86 380.552
L1289.9 384.498
L1290.95 393.127
L1292 378.373
L1293.04 395.396
L1294.09 369.276
L1295.14 362.953
L1296.18 394.386
L1297.23 374.43
L1298.28 390.943
L1299.33 370.399
L1300.37 366.562
L1301.42 388.274
L1302.47 374.858
L1303.51 393.864
L1304.56 352.428
L1305.61 376.856
L1306.65 369.359
L1307.7 365.248
L1308.75 382.669
L1309.79 347.172
L1310.84 383.907
L1311.89 365.262
L1312.93 374.859
L1313.98 368.886
L1315.03 356.108
L1316.07 394.617
L1317.12 366.161
L1318.17 396.977
L1319.21 354.652
L1320.26 374.66
L1321.31 375.503
L1322.35 366.629
L1323.4 382.886
L1324.45 360.216
L1325.5 395.035
L1326.54 359.207
L1327.59 376.916
L1328.64 369.129
L1329.68 364.76
L1330.73 385.937
L1331.78 352.671
L1332.82 390.678
L1333.87 362.357
L1334.92 368.212
L1335.96 369.87
L1337.01 357.05
L1338.06 394.769
L1339.1 359.061
L1340.15 379.285
L1341.2 367.03
L1342.24 365.229
L1343.29 391.48
L1344.34 369.848
L1345.38 391.43
L1346.43 358.96
L1347.48 377.127
L1348.53 373.025
L1349.57 369.97
L1350.62 380.569
L1351.67 356.643
L1352.71 380.986
L1353.76 381.043
L1354.81 393.661
L1355.85 374.413
L1356.9 378.706
L1357.95 385.206
L1358.99 379.141
L1360.04 384.697
L1361.09 363.552
L1362.13 385.75
L1363.18 378.678
L1364.23 388.517
L1365.27 381.176
L1366.32 380.034
L1367.37 392.76
L1368.41 384.137
L1369.46 387.391
L1370.51 369.577
L1371.55 383.209
L1372.6 383.864
L1373.65 381.553
L1374.7 397.803
L1375.74 381.968
L1376.79 388.035
L1377.84 394.779
L1378.88 390.913
L1379.93 390.321
L1380.98 397.872
L1382.02 395.586
L1383.07 397.513
L1384.12 388.967
L1385.16 392.452
L1386.21 390.631
L1387.26 385.976
L1388.3 397.949
L1389.35 379.88
L1390.4 386.294
L1391.44 389.97
L1392.49 387.829
L1393.54 389.96
L1394.58 381.655
L1395.63 395.765
L1396.68 386.918
L1397.73 391.868
L1398.77 367.412
L1399.82 383.441
L1400.87 383.062
L1401.91 381.77
L1402.96 376.369
L1404.01 365.662
L1405.05 395.718
L1406.1 375.069
L1407.15 396.453
L1408.19 357.912
L1409.24 367.795
L1410.29 386.976
L1411.33 369.212
L1412.38 388.387
L1413.43 356.111
L1414.47 378.942
L1415.52 373.355
L1416.57 374.882
L1417.61 376.84
L1418.66 355.535
L1419.71 392.339
L1420.75 365.833
L1421.8 385.271
L1422.85 368.156
L1423.9 355.156
L1424.94 398.487
L1425.99 375.827
L1427.04 398.055
L1428.08 358.388
L1429.13 369.129
L1430.18 387.958
L1431.22 375.716
L1432.27 388.927
L1433.32 366.554
L1434.36 392.267
L1435.41 379.737
L1436.46 384.169
L1437.5 372.88
L1438.55 375.204
L1439.6 391.682
L1440.64 369.793
L1441.69 396.622
L1442.74 369.023
L1443.78 377.322
L1444.83 389.23
L1445.88 379.993
L1446.93 393.013
L1447.97 382.293
L1449.02 396.859
L1450.07 379.484
L1451.11 387.042
L1452.16 389.381
L1453.21 382.59
L1454.25 394.293
L1455.3 380.618
L1456.35 387.118
L1457.39 398.224
L1458.44 396.003
L1459.49 394.667
L1460.53 395.699
L1461.58 396.268
L1462.63 394.711
L1463.67 385.111
L1464.72 385.528
L1465.77 395.938
L1466.81 396.738
L1467.86 395.495
L1468.91 393.974
L1469.95 396.521
L1471 396.874
L1472.05 390.909
L1473.1 383.182
L1475.19 394.72
L1476.24 390.033
L1477.28 397.609
L1478.33 390.715
L1479.38 387.59
L1480.42 386.322
L1481.47 391.327
L1482.52 397.557
L1483.56 392.146
L1484.61 394.571
L1485.66 386.405
L1486.7 391.476
L1487.75 387.971
L1488.8 391.66
L1489.84 381.916
L1490.89 373.934
L1491.94 392.997
L1492.98 366.049
L1494.03 386.84
L1495.08 366.176
L1496.13 366.65
L1497.17 384.437
L1498.22 362.309
L1499.27 395.947
L1500.31 356.047
L1501.36 381.151
L1502.41 365.57
L1503.45 363.465
L1504.5 375.431
L1505.55 357.323
L1506.59 397.535
L1507.64 354.602
L1508.69 380.424
L1509.73 366.766
L1510.78 370.687
L1511.83 375.649
L1512.87 359.347
L1513.92 395.857
L1514.97 363.762
L1516.01 391.913
L1517.06 364.51
L1518.11 369.934
L1519.15 386.374
L1520.2 376.103
L1521.25 393.837
L1522.3 374.754
L1523.34 389.917
L1524.39 390.896
L1525.44 393.737
L1526.48 388.183
L1527.53 390.893
L1528.58 396.178
L1529.62 397.428
L1530.67 392.6
L1531.72 395.238
L1532.76 392.998
L1533.81 381.143
L1534.86 381.498
L1535.9 398.412
L1536.95 385.148
L1538 391.313
L1539.04 367.675
L1540.09 372.448
L1541.14 389.919
L1542.18 375.996
L1543.23 396.651
L1544.28 372.471
L1545.32 381.643
L1546.37 392.892
L1547.42 392.533
L1548.47 388.322
L1549.51 383.335
L1550.56 396.002
L1551.61 395.986
L1552.65 392.818
L1553.7 391.228
L1554.75 390.494
L1555.79 392.023
L1556.84 383.318
L1557.89 392.995
L1558.93 388.815
L1559.98 388.174
L1561.03 384.763
L1562.07 373.735
L1563.12 395.852
L1564.17 383.63
L1565.21 394.662
L1566.26 373.549
L1568.35 383.472
L1569.4 372.757
L1570.45 395.826
L1571.5 362.747
L1572.54 377.255
L1573.59 382.77
L1574.64 369.413
L1575.68 396.03
L1576.73 377.684
L1577.78 385.303
L1578.82 389.023
L1579.87 382.903
L1580.92 387.072
L1581.96 374.918
L1583.01 391.311
L1584.06 371.618
L1585.1 369.278
L1586.15 393.724
L1587.2 363.669
L1588.24 381.902
L1589.29 367.73
L1590.34 359.435
L1591.38 398.432
L1592.43 363.657
L1593.48 392.857
L1594.52 361.336
L1595.57 360.184
L1596.62 378.686
L1597.67 357.716
L1598.71 397.664
L1599.76 352.713
L1601.85 379.449
L1602.9 371.001
L1603.95 385.416
L1604.99 357.28
L1606.04 385.831
L1607.09 380.011
L1608.13 388.248
L1609.18 371.153
L1610.23 361.594
L1611.27 386.15
L1612.32 384.937
L1613.37 393.984
L1614.41 387.107
L1615.46 378.783
L1618.6 395.382
L1619.65 397.699
L1620.7 388.306
L1621.74 376.283
L1622.79 384.617
L1623.84 397.358
L1624.88 388.886
L1625.93 382.273
L1626.98 366.237
L1628.02 382.102
L1630.12 393.586
L1631.16 369.236
L1632.21 361.981
L1633.26 391.583
L1634.3 379.503
L1635.35 395.385
L1636.4 365.195
L1637.44 367.678
L1638.49 397.406
L1639.54 388.438
L1640.58 390.407
L1641.63 378.591
L1642.68 389.817
L1643.72 393.656
L1644.77 392.885
L1645.82 388.217
L1646.87 394.713
L1647.91 398.298
L1648.96 387.235
L1650.01 378.056
L1651.05 396.383
L1652.1 385.703
L1653.15 392.967
L1654.19 363.866
L1655.24 383.019
L1656.29 372.109
L1657.33 371.985
L1658.38 375.896
L1659.43 355.85
L1660.47 388.087
L1661.52 347.069
L1662.57 381.256
L1663.61 345.787
L1664.66 358.698
L1665.71 358.111
L1666.75 330.789
L1667.8 397.391
L1668.85 336.115
L1669.9 374.854
L1670.94 345.301
L1671.99 344.857
L1673.04 378.151
L1674.08 350.928
L1675.13 389.707
L1676.18 333.696
L1677.22 364.412
L1678.27 370.119
L1679.32 363.317
L1680.36 377.304
L1681.41 346.101
L1682.46 371.741
L1683.5 384.878
L1684.55 384.751
L1685.6 384.086
L1686.64 362.038
L1687.69 368.76
L1688.74 390.226
L1689.78 391.038
L1690.83 396.324
L1691.88 363.752
L1692.92 353.382
L1693.97 376.78
L1695.02 376.557
L1696.07 387.948
L1698.16 345.876
L1699.21 387.887
L1700.25 372.506
L1701.3 396.51
L1702.35 352.249
L1703.39 352.177
L1704.44 391.657
L1705.49 372.928
L1706.53 384.801
L1707.58 340.786
L1708.63 361.019
L1709.67 393.198
L1710.72 382.878
L1711.77 380.913
L1712.81 364.771
L1713.86 383.149
L1714.91 394.537
L1715.95 397.369
L1717 381.405
L1718.05 380.23
L1719.1 390.673
L1720.14 394.973
L1721.19 389.582
L1722.24 394.256
L1723.28 397.103
L1724.33 391.995
L1725.38 376.344
L1726.42 382.717
L1727.47 397.902
L1728.52 385.648
L1729.56 390.98
L1730.61 376.872
L1731.66 389.972
L1732.7 376.533
L1733.75 379.835
L1734.8 380.658
L1735.84 361.534
L1736.89 393.6
L1737.94 356.759
L1738.98 365.349
L1740.03 380.073
L1741.08 358.713
L1742.12 390.795
L1743.17 343.14
L1744.22 363.679
L1745.27 370.861
L1746.31 365.149
L1747.36 371.499
L1748.41 328.727
L1749.45 371.855
L1750.5 359.656
L1751.55 369.965
L1752.59 355.805
L1753.64 329.68
L1754.69 387.96
L1755.73 351.463
L1756.78 384.96
L1757.83 337.175
L1758.87 328.822
L1759.92 394.682
L1760.97 353.657
L1762.01 396.703
L1763.06 330.122
L1764.11 333.413
L1765.15 395.605
L1766.2 366.497
L1767.25 382.29
L1768.3 335.463
L1769.34 357.002
L1770.39 384.275
L1771.44 378.867
L1772.48 369.758
L1773.53 339.56
L1774.58 367.964
L1775.62 388.931
L1776.67 388.363
L1778.76 356.28
L1779.81 372.077
L1780.86 394.904
L1781.9 397.261
L1784 369.804
L1785.04 371.695
L1786.09 381.88
L1787.14 398.499
L1788.18 396.641
L1790.28 367.996
L1791.32 377.115
L1792.37 393.766
L1793.42 393.37
L1794.47 381.995
L1795.51 379.799
L1796.56 398.049
L1797.61 392.699
L1798.65 389.797
L1799.7 378.542
L1801.79 394.954
L1802.84 397.109
L1803.89 388.172
L1804.93 392.526
L1805.98 396.038
L1807.03 394.765
L1808.07 383.309
L1809.12 393.934
L1810.17 382.687
L1811.21 389.362
L1812.26 380.181
L1813.31 378.166
L1814.35 377.673
L1815.4 351.552
L1816.45 385.776
L1817.5 364.431
L1818.54 377.639
L1819.59 362.352
L1820.64 345.402
L1821.68 396.482
L1822.73 365.047
L1823.78 393.747
L1824.82 342.302
L1825.87 359.014
L1826.92 370.435
L1827.96 362.433
L1829.01 367.09
L1830.06 315.139
L1831.1 365.716
L1832.15 356.705
L1833.2 358.616
L1834.24 352.206
L1835.29 314.055
L1836.34 374.19
L1837.38 351.288
L1838.43 373.097
L1839.48 340.386
L1840.52 320.803
L1841.57 385.64
L1842.62 352.879
L1843.67 395.034
L1844.71 332.756
L1845.76 331.669
L1846.81 394.366
L1847.85 366.39
L1848.9 378.946
L1849.95 325.612
L1850.99 356.548
L1852.04 370.879
L1853.09 364.614
L1854.13 369.39
L1855.18 322.552
L1856.23 364.287
L1857.27 378.515
L1858.32 378.563
L1859.37 368.307
L1860.41 352.856
L1861.46 385.711
L1862.51 386.862
L1863.55 386.725
L1864.6 356.762
L1866.7 390.973
L1867.74 382.584
L1868.79 381.639
L1869.84 370.281
L1870.88 388.965
L1871.93 386.492
L1872.98 397.716
L1874.02 380.261
L1875.07 380.715
L1876.12 397.869
L1877.16 390.743
L1878.21 395.517
L1879.26 391.904
L1880.3 396.518
L1881.35 396.822
L1882.4 392.555
L1883.44 387.173
L1884.49 397.35
L1885.54 384.323
L1886.58 382.341
L1887.63 397.376
L1888.68 388.014
L1889.72 387.809
L1890.77 386.997
L1891.82 374.205
L1892.87 380.805
L1893.91 391.026
L1894.96 382.048
L1896.01 384.677
L1897.05 359.931
L1899.15 378.735
L1900.19 380.156
L1901.24 369.271
L1902.29 337.782
L1903.33 386.304
L1904.38 353.888
L1905.43 381.93
L1906.47 336.805
L1907.52 326.656
L1908.57 378.26
L1909.61 328.897
L1910.66 392.629
L1911.71 295.917
L1912.75 328.547
L1913.8 350.142
L1914.85 333.856
L1915.9 357.591
L1916.94 285.112
L1917.99 366.32
L1919.04 333.551
L1920.08 364.577
L1921.13 312.255
L1922.18 300.603
L1923.22 383.115
L1924.27 316.999
L1925.32 394.347
L1926.36 300.042
L1928.46 362.271
L1929.5 347.392
L1930.55 364.904
L1931.6 312.895
L1932.64 370.794
L1933.69 357.057
L1934.74 377.529
L1935.78 355.223
L1936.83 342.634
L1937.88 393.259
L1938.92 385.096
L1939.97 385.063
L1941.02 357.145
L1942.07 384.114
L1944.16 392.584
L1945.21 370.398
L1946.25 361.757
L1947.3 375.78
L1948.35 393.139
L1949.39 392.951
L1950.44 396.426
L1951.49 392.499
L1952.53 376.995
L1953.58 377.583
L1954.63 396.231
L1955.67 392.4
L1956.72 393.185
L1957.77 384.976
L1958.81 394.575
L1960.91 386.576
L1961.95 373.495
L1963 388.75
L1964.05 379.302
L1965.09 390.08
L1966.14 369.034
L1967.19 371.496
L1968.24 381.587
L1969.28 361.244
L1970.33 390.719
L1971.38 356.588
L1972.42 389.922
L1973.47 355.732
L1974.52 377.353
L1975.56 359.914
L1976.61 364.701
L1977.66 362.703
L1978.7 339.747
L1979.75 382.257
L1980.8 322.507
L1981.84 378.995
L1982.89 321.36
L1983.94 327.432
L1984.98 365.304
L1986.03 323.374
L1987.08 391.665
L1988.12 313.257
L1989.17 352.161
L1990.22 350.679
L1991.27 347.346
L1992.31 359.818
L1993.36 312.773
L1994.41 375.404
L1995.45 341.743
L1996.5 364.96
L1997.55 344.355
L1998.59 316.552
L1999.64 384.997
L2000.69 344.037
L2001.73 381.465
L2002.78 332.1
L2003.83 314.947
L2004.87 394.726
L2005.92 339.111
L2006.97 379.33
L2008.01 333.321
L2009.06 315.325
L2010.11 394.826
L2011.15 351.309
L2012.2 393.925
L2013.25 327.953
L2014.29 336.801
L2015.34 384.76
L2016.39 367.916
L2017.44 364.347
L2018.48 313.098
L2019.53 359.541
L2020.58 364.802
L2021.62 376.128
L2022.67 344.628
L2023.72 319.233
L2024.76 383.458
L2025.81 358.703
L2026.86 395.358
L2027.9 342.712
L2028.95 346.591
L2030 396.198
L2031.04 385.634
L2033.14 347.818
L2034.18 388.305
L2035.23 378.724
L2036.28 387.96
L2037.32 342.095
L2038.37 358.428
L2039.42 387.712
L2040.47 375.676
L2041.51 376.486
L2042.56 355.452
L2043.61 381.9
L2044.65 381.87
L2045.7 395.678
L2046.75 365.836
L2047.79 372.304
L2048.84 385.378
L2049.89 378.555
L2050.93 383.325
L2051.98 367.853
L2053.03 386.075
L2054.07 370.225
L2055.12 382.376
L2056.17 383.611
L2057.21 359.344
L2058.26 389.781
L2059.31 367.654
L2060.35 362.236
L2061.4 393.747
L2062.45 346.879
L2063.49 368.754
L2064.54 368.466
L2065.59 339.469
L2066.64 392.186
L2067.68 350.549
L2068.73 381.723
L2069.78 333.861
L2070.82 328.72
L2071.87 374.454
L2072.92 327.928
L2073.96 384.728
L2075.01 281.039
L2076.06 326.959
L2077.1 334.208
L2078.15 314.944
L2079.2 354.28
L2080.24 269.892
L2081.29 364.207
L2082.34 310.454
L2083.38 350.575
L2084.43 307.779
L2085.48 281.883
L2086.52 386.074
L2087.57 313.892
L2088.62 397.244
L2089.67 282.498
L2090.71 325.995
L2091.76 358.062
L2092.81 346.794
L2093.85 344.205
L2094.9 297.677
L2095.95 379.736
L2096.99 342.363
L2098.04 383.217
L2099.09 318.445
L2100.13 324.105
L2101.18 398.348
L2102.23 358.365
L2103.27 383.395
L2104.32 338.528
L2105.37 356.54
L2106.41 392.054
L2107.46 392.018
L2108.51 365
L2109.55 358.911
L2110.6 380.537
L2111.65 390.797
L2112.69 387.139
L2113.74 362.031
L2114.79 358.85
L2115.84 386.127
L2116.88 394.104
L2117.93 389.837
L2118.98 371.93
L2120.02 366.678
L2121.07 396.154
L2122.12 389.172
L2123.16 397.696
L2124.21 372.643
L2125.26 384.328
L2126.3 377.456
L2127.35 381.252
L2128.4 376.481
L2129.44 351.186
L2130.49 398.173
L2131.54 347.87
L2132.58 370.132
L2133.63 352.382
L2134.68 339.165
L2135.72 381.597
L2136.77 330.385
L2137.82 378.483
L2138.87 334.893
L2139.91 359.212
L2140.96 344.345
L2142.01 314.371
L2143.05 393.695
L2144.1 328.865
L2145.15 385.671
L2146.19 312.145
L2147.24 328.793
L2148.29 365.009
L2149.33 331.264
L2150.38 374.142
L2151.43 291.933
L2152.47 341.139
L2153.52 348.967
L2154.57 338.057
L2155.61 358.551
L2156.66 296.515
L2157.71 346.549
L2159.8 363.489
L2160.85 358.512
L2161.89 317.021
L2162.94 379.333
L2163.99 360.955
L2165.04 388.833
L2166.08 331.407
L2167.13 321.188
L2168.18 392.435
L2169.22 354.949
L2170.27 390.022
L2171.32 310.431
L2172.36 321.356
L2173.41 390.429
L2174.46 356.036
L2175.5 367.337
L2176.55 301.478
L2177.6 342.021
L2178.64 359.718
L2179.69 357.963
L2180.74 347.416
L2181.78 301.863
L2182.83 372.503
L2183.88 351.154
L2184.92 389.006
L2185.97 317.594
L2187.02 325.319
L2188.07 381.135
L2189.11 348.526
L2190.16 360.898
L2191.21 294.612
L2192.25 352.451
L2193.3 347.265
L2194.35 364.543
L2196.44 317.493
L2197.49 398.381
L2198.53 351.527
L2199.58 383.824
L2200.63 318.411
L2201.67 363.99
L2202.72 341.637
L2203.77 356.525
L2204.81 338.813
L2205.86 304.934
L2206.91 395.353
L2207.95 316.881
L2209 366.455
L2210.05 325.055
L2211.09 327.873
L2212.14 370.968
L2213.19 328.212
L2214.24 393.997
L2215.28 328.952
L2216.33 357.45
L2217.38 352.411
L2218.42 336.874
L2219.47 392.371
L2220.52 335.601
L2221.56 380.287
L2222.61 342.515
L2223.66 331.141
L2224.7 395.367
L2225.75 351.306
L2226.8 389.834
L2227.84 340.031
L2228.89 329.401
L2229.94 397.501
L2230.98 346.433
L2232.03 387.631
L2233.08 333.631
L2234.12 327.646
L2235.17 391.639
L2236.22 344.42
L2237.27 389.423
L2238.31 320.975
L2239.36 336.464
L2240.41 373.077
L2241.45 368.859
L2242.5 349.061
L2243.55 295.306
L2244.59 366.534
L2245.64 343.54
L2246.69 384.737
L2247.73 310.3
L2248.78 288.45
L2249.83 396.271
L2250.87 345.756
L2251.92 385.266
L2252.97 291.928
L2254.01 326.956
L2255.06 376.882
L2256.11 373.911
L2258.2 287.221
L2259.25 369.612
L2260.29 349.407
L2261.34 396.705
L2262.39 306.1
L2263.44 308.119
L2264.48 395.895
L2265.53 360.654
L2266.58 357.124
L2267.62 295.846
L2268.67 340.709
L2269.72 375.426
L2270.76 389.281
L2271.81 323.025
L2272.86 301.678
L2273.9 370.966
L2274.95 365.346
L2276 381.365
L2277.04 317.947
L2278.09 336.258
L2279.14 372.346
L2280.18 354.479
L2281.23 354.444
L2282.28 292.96
L2283.32 347.588
L2284.37 339.487
L2285.42 346.977
L2286.47 343.162
L2287.51 285.803
L2288.56 358.177
L2289.61 335.85
L2290.65 363.056
L2292.75 306.047
L2293.79 392.99
L2294.84 315.502
L2295.89 376.391
L2296.93 323.314
L2297.98 326.112
L2299.03 357.623
L2300.07 311.667
L2301.12 378.806
L2302.17 324.984
L2303.21 358.477
L2304.26 344.136
L2305.31 313.994
L2306.35 389.61
L2307.4 343.124
L2308.45 390.451
L2309.49 329.896
L2310.54 325.527
L2311.59 394.856
L2312.64 361.984
L2313.68 385.952
L2314.73 321.495
L2315.78 339.306
L2316.82 391.173
L2317.87 379.388
L2318.92 351.508
L2319.96 309.322
L2321.01 350.256
L2322.06 382.191
L2323.1 397.389
L2324.15 305.995
L2325.2 270.905
L2326.24 341.094
L2327.29 376.276
L2328.34 395.843
L2329.38 303.261
L2330.43 281.874
L2331.48 358.263
L2332.52 382.895
L2333.57 365.342
L2334.62 291.675
L2335.67 313.975
L2336.71 394.785
L2337.76 385.879
L2339.85 262.895
L2341.95 387.409
L2342.99 384.615
L2344.04 293.278
L2345.09 282.103
L2346.13 368.604
L2347.18 383.811
L2348.23 340.741
L2349.27 281.376
L2351.37 375.626
L2352.41 390.39
L2353.46 296.541
L2354.51 283.338
L2355.55 374.998
L2356.6 339.221
L2357.65 370.435
L2358.69 274.741
L2359.74 301.218
L2360.79 364.288
L2361.84 333.217
L2362.88 345.468
L2363.93 262.317
L2364.98 329.516
L2366.02 333.806
L2367.07 351.83
L2368.12 335.62
L2369.16 281.033
L2370.21 379.203
L2371.26 333.124
L2372.3 374.597
L2373.35 316.958
L2374.4 323.297
L2375.44 361.463
L2376.49 304.909
L2377.54 368.998
L2378.58 335.663
L2379.63 362.553
L2380.68 339.008
L2381.72 299.631
L2382.77 374.914
L2383.82 358.684
L2384.86 395.043
L2385.91 321.129
L2386.96 317.174
L2388.01 394.356
L2389.05 375.2
L2390.1 367.6
L2391.15 287.659
L2392.19 326.015
L2393.24 391.686
L2394.29 390.837
L2395.33 308.051
L2396.38 259.498
L2397.43 316.288
L2398.47 397.162
L2399.52 394.825
L2400.57 281.402
L2401.61 261.713
L2402.66 317.903
L2403.71 385.936
L2404.75 366.58
L2405.8 281.457
L2406.85 260.761
L2407.89 333.92
L2408.94 390.369
L2409.99 339.037
L2411.04 268.911
L2412.08 269.615
L2413.13 348.994
L2414.18 370.567
L2415.22 321.882
L2416.27 266.386
L2417.32 310.943
L2418.36 370.753
L2419.41 369.827
L2420.46 301.005
L2421.5 271.787
L2422.55 325.997
L2423.6 368.125
L2424.64 339.59
L2425.69 282.039
L2426.74 304.245
L2427.78 361.865
L2428.83 374.493
L2429.88 300.237
L2430.92 272.107
L2431.97 337.88
L2433.02 374.437
L2434.06 397.229
L2435.11 299.334
L2436.16 280.261
L2437.21 364.151
L2438.25 351.902
L2439.3 376.726
L2440.35 280.131
L2441.39 284.352
L2442.44 392.582
L2443.49 347.268
L2444.53 355.497
L2445.58 275.274
L2446.63 332.225
L2447.67 335.631
L2448.72 338.485
L2449.77 356.085
L2450.81 297.48
L2451.86 385.716
L2452.91 294.564
L2453.95 340.819
L2455 324.601
L2456.05 321.582
L2457.09 342.781
L2458.14 282.446
L2459.19 368.698
L2460.24 323.491
L2461.28 378.185
L2462.33 303.339
L2463.38 294.016
L2464.42 385.25
L2465.47 346.811
L2466.52 350.008
L2467.56 243.746
L2468.61 301.066
L2469.66 370.734
L2470.7 363.537
L2471.75 319.202
L2472.8 239.036
L2474.89 392.787
L2475.94 385.011
L2476.98 279.729
L2478.03 245.144
L2479.08 324.46
L2480.12 378.043
L2481.17 348.411
L2482.22 264.327
L2483.26 263.424
L2485.36 365.616
L2486.41 330.493
L2487.45 285.964
L2488.5 283.729
L2489.55 334.195
L2490.59 355.198
L2491.64 323.516
L2492.69 281.253
L2493.73 278.64
L2494.78 324.256
L2495.83 342.224
L2496.87 312.525
L2497.92 274.296
L2498.97 292.029
L2500.01 336.03
L2501.06 344.109
L2502.11 291.59
L2503.15 289.684
L2504.2 343.856
L2505.25 388.975
L2506.29 340.792
L2507.34 264.397
L2508.39 295.022
L2509.44 389.944
L2510.48 378.694
L2512.58 246.138
L2513.62 319.877
L2514.67 367.688
L2515.72 385.097
L2516.76 283.206
L2517.81 267.484
L2518.86 378.577
L2519.9 326.407
L2520.95 381.554
L2522 271.412
L2523.04 304.288
L2524.09 349.437
L2525.14 319.472
L2526.18 359.296
L2527.23 283
L2528.28 359.986
L2529.32 306.963
L2530.37 339.993
L2531.42 348.502
L2532.46 327.99
L2533.51 352.428
L2534.56 290.22
L2535.61 364.31
L2536.65 336.295
L2537.7 375.986
L2538.75 303.906
L2539.79 285.595
L2540.84 388.789
L2541.89 343.182
L2542.93 372.682
L2543.98 269.814
L2545.03 289.142
L2546.07 393.227
L2547.12 366.361
L2548.17 332.593
L2549.21 224.796
L2550.26 269.624
L2551.31 376.128
L2552.35 392.598
L2554.45 240.423
L2555.49 282.219
L2556.54 357.128
L2557.59 366.088
L2558.64 287.589
L2559.68 253.196
L2560.73 305.628
L2561.78 368.927
L2562.82 347.767
L2563.87 267.469
L2564.92 243.18
L2567.01 359.471
L2568.06 320.913
L2569.1 263.199
L2570.15 259.405
L2571.2 322.944
L2572.24 341.769
L2573.29 283.535
L2574.34 254.828
L2575.38 291.242
L2576.43 359.435
L2577.48 317.792
L2578.52 254.566
L2579.57 253.225
L2580.62 340.796
L2581.66 377.502
L2583.76 234.868
L2584.81 278.457
L2585.85 383.135
L2586.9 395.77
L2587.95 300.96
L2588.99 246.427
L2591.09 393.755
L2592.13 390.304
L2593.18 288.119
L2594.23 275.07
L2595.27 350.305
L2596.32 378.174
L2597.37 371.689
L2598.41 288.2
L2599.46 304.067
L2600.51 393.26
L2601.55 352.049
L2602.6 374.063
L2603.65 305.441
L2604.69 332.083
L2605.74 350.989
L2606.79 325.209
L2607.84 389.334
L2608.88 321.815
L2609.93 368.297
L2610.98 320.207
L2612.02 329.462
L2613.07 381.236
L2614.12 339.454
L2615.16 359.964
L2616.21 275.908
L2617.26 334.254
L2618.3 349.734
L2619.35 361.258
L2621.44 234.141
L2622.49 337.304
L2623.54 347.084
L2624.58 393.405
L2625.63 255.016
L2626.68 224.264
L2627.72 354.41
L2628.77 378.362
L2629.82 338.671
L2630.86 225.445
L2631.91 242.927
L2632.96 358.98
L2634.01 365.554
L2635.05 282.927
L2636.1 217.744
L2637.15 292.977
L2638.19 352.544
L2639.24 324.448
L2640.29 238.397
L2641.33 234.022
L2642.38 320.287
L2643.43 342.045
L2644.47 295.741
L2645.52 231.233
L2647.61 317.304
L2648.66 307.607
L2649.71 235.702
L2650.75 244.708
L2651.8 317.812
L2652.85 341.145
L2654.94 206.229
L2655.99 252.971
L2657.04 350.679
L2658.08 367.178
L2659.13 277.25
L2660.18 222.959
L2661.22 271.038
L2662.27 376.149
L2663.32 365.353
L2664.36 285.206
L2665.41 225.101
L2666.46 288.502
L2667.5 368.036
L2668.55 371.378
L2669.6 297.951
L2670.64 254.653
L2671.69 313.421
L2671.69 313.421" style="fill:none;stroke:#008000;stroke-linecap:square;"/>
   </g>
   <g id="patch_3">
    <path d="
M422.1 44.28
L3039.12 44.28" style="fill:none;stroke:#000000;stroke-linecap:square;stroke-linejoin:miter;"/>
   </g>
   <g id="patch_4">
    <path d="
M3039.12 398.52
L3039.12 44.28" style="fill:none;stroke:#000000;stroke-linecap:square;stroke-linejoin:miter;"/>
   </g>
   <g id="patch_5">
    <path d="
M422.1 398.52
L3039.12 398.52" style="fill:none;stroke:#000000;stroke-linecap:square;stroke-linejoin:miter;"/>
   </g>
   <g id="patch_6">
    <path d="
M422.1 398.52
L422.1 44.28" style="fill:none;stroke:#000000;stroke-linecap:square;stroke-linejoin:miter;"/>
   </g>
   <g id="matplotlib.axis_1">
    <g id="xtick_1">
     <g id="line2d_3">
      <defs>
       <path d="
M0 0
L0 -4" id="m93b0483c22" style="stroke:#000000;stroke-width:0.5;"/>
      </defs>
      <g>
       <use style="stroke:#000000;stroke-width:0.5;" x="422.1" xlink:href="#m93b0483c22" y="398.52"/>
      </g>
     </g>
     <g id="line2d_4">
      <defs>
       <path d="
M0 0
L0 4" id="m741efc42ff" style="stroke:#000000;stroke-width:0.5;"/>
      </defs>
      <g>
       <use style="stroke:#000000;stroke-width:0.5;" x="422.1" xlink:href="#m741efc42ff" y="44.28"/>
      </g>
     </g>
     <g id="text_1">
      <!-- 0 -->
      <defs>
       <path d="
M31.7812 66.4062
Q24.1719 66.4062 20.3281 58.9062
Q16.5 51.4219 16.5 36.375
Q16.5 21.3906 20.3281 13.8906
Q24.1719 6.39062 31.7812 6.39062
Q39.4531 6.39062 43.2812 13.8906
Q47.125 21.3906 47.125 36.375
Q47.125 51.4219 43.2812 58.9062
Q39.4531 66.4062 31.7812 66.4062
M31.7812 74.2188
Q44.0469 74.2188 50.5156 64.5156
Q56.9844 54.8281 56.9844 36.375
Q56.9844 17.9688 50.5156 8.26562
Q44.0469 -1.42188 31.7812 -1.42188
Q19.5312 -1.42188 13.0625 8.26562
Q6.59375 17.9688 6.59375 36.375
Q6.59375 54.8281 13.0625 64.5156
Q19.5312 74.2188 31.7812 74.2188" id="BitstreamVeraSans-Roman-30"/>
      </defs>
      <g transform="translate(419.0765625 411.638125)scale(0.12 -0.12)">
       <use xlink:href="#BitstreamVeraSans-Roman-30"/>
      </g>
     </g>
    </g>
    <g id="xtick_2">
     <g id="line2d_5">
      <g>
       <use style="stroke:#000000;stroke-width:0.5;" x="945.504" xlink:href="#m93b0483c22" y="398.52"/>
      </g>
     </g>
     <g id="line2d_6">
      <g>
       <use style="stroke:#000000;stroke-width:0.5;" x="945.504" xlink:href="#m741efc42ff" y="44.28"/>
      </g>
     </g>
     <g id="text_2">
      <!-- 500 -->
      <defs>
       <path d="
M10.7969 72.9062
L49.5156 72.9062
L49.5156 64.5938
L19.8281 64.5938
L19.8281 46.7344
Q21.9688 47.4688 24.1094 47.8281
Q26.2656 48.1875 28.4219 48.1875
Q40.625 48.1875 47.75 41.5
Q54.8906 34.8125 54.8906 23.3906
Q54.8906 11.625 47.5625 5.09375
Q40.2344 -1.42188 26.9062 -1.42188
Q22.3125 -1.42188 17.5469 -0.640625
Q12.7969 0.140625 7.71875 1.70312
L7.71875 11.625
Q12.1094 9.23438 16.7969 8.0625
Q21.4844 6.89062 26.7031 6.89062
Q35.1562 6.89062 40.0781 11.3281
Q45.0156 15.7656 45.0156 23.3906
Q45.0156 31 40.0781 35.4375
Q35.1562 39.8906 26.7031 39.8906
Q22.75 39.8906 18.8125 39.0156
Q14.8906 38.1406 10.7969 36.2812
z
" id="BitstreamVeraSans-Roman-35"/>
      </defs>
      <g transform="translate(934.9130625 411.638125)scale(0.12 -0.12)">
       <use xlink:href="#BitstreamVeraSans-Roman-35"/>
       <use x="63.623046875" xlink:href="#BitstreamVeraSans-Roman-30"/>
       <use x="127.24609375" xlink:href="#BitstreamVeraSans-Roman-30"/>
      </g>
     </g>
    </g>
    <g id="xtick_3">
     <g id="line2d_7">
      <g>
       <use style="stroke:#000000;stroke-width:0.5;" x="1468.908" xlink:href="#m93b0483c22" y="398.52"/>
      </g>
     </g>
     <g id="line2d_8">
      <g>
       <use style="stroke:#000000;stroke-width:0.5;" x="1468.908" xlink:href="#m741efc42ff" y="44.28"/>
      </g>
     </g>
     <g id="text_3">
      <!-- 1000 -->
      <defs>
       <path d="
M12.4062 8.29688
L28.5156 8.29688
L28.5156 63.9219
L10.9844 60.4062
L10.9844 69.3906
L28.4219 72.9062
L38.2812 72.9062
L38.2812 8.29688
L54.3906 8.29688
L54.3906 0
L12.4062 0
z
" id="BitstreamVeraSans-Roman-31"/>
      </defs>
      <g transform="translate(1454.6955 411.638125)scale(0.12 -0.12)">
       <use xlink:href="#BitstreamVeraSans-Roman-31"/>
       <use x="63.623046875" xlink:href="#BitstreamVeraSans-Roman-30"/>
       <use x="127.24609375" xlink:href="#BitstreamVeraSans-Roman-30"/>
       <use x="190.869140625" xlink:href="#BitstreamVeraSans-Roman-30"/>
      </g>
     </g>
    </g>
    <g id="xtick_4">
     <g id="line2d_9">
      <g>
       <use style="stroke:#000000;stroke-width:0.5;" x="1992.312" xlink:href="#m93b0483c22" y="398.52"/>
      </g>
     </g>
     <g id="line2d_10">
      <g>
       <use style="stroke:#000000;stroke-width:0.5;" x="1992.312" xlink:href="#m741efc42ff" y="44.28"/>
      </g>
     </g>
     <g id="text_4">
      <!-- 1500 -->
      <g transform="translate(1978.0995 411.638125)scale(0.12 -0.12)">
       <use xlink:href="#BitstreamVeraSans-Roman-31"/>
       <use x="63.623046875" xlink:href="#BitstreamVeraSans-Roman-35"/>
       <use x="127.24609375" xlink:href="#BitstreamVeraSans-Roman-30"/>
       <use x="190.869140625" xlink:href="#BitstreamVeraSans-Roman-30"/>
      </g>
     </g>
    </g>
    <g id="xtick_5">
     <g id="line2d_11">
      <g>
       <use style="stroke:#000000;stroke-width:0.5;" x="2515.716" xlink:href="#m93b0483c22" y="398.52"/>
      </g>
     </g>
     <g id="line2d_12">
      <g>
       <use style="stroke:#000000;stroke-width:0.5;" x="2515.716" xlink:href="#m741efc42ff" y="44.28"/>
      </g>
     </g>
     <g id="text_5">
      <!-- 2000 -->
      <defs>
       <path d="
M19.1875 8.29688
L53.6094 8.29688
L53.6094 0
L7.32812 0
L7.32812 8.29688
Q12.9375 14.1094 22.625 23.8906
Q32.3281 33.6875 34.8125 36.5312
Q39.5469 41.8438 41.4219 45.5312
Q43.3125 49.2188 43.3125 52.7812
Q43.3125 58.5938 39.2344 62.25
Q35.1562 65.9219 28.6094 65.9219
Q23.9688 65.9219 18.8125 64.3125
Q13.6719 62.7031 7.8125 59.4219
L7.8125 69.3906
Q13.7656 71.7812 18.9375 73
Q24.125 74.2188 28.4219 74.2188
Q39.75 74.2188 46.4844 68.5469
Q53.2188 62.8906 53.2188 53.4219
Q53.2188 48.9219 51.5312 44.8906
Q49.8594 40.875 45.4062 35.4062
Q44.1875 33.9844 37.6406 27.2188
Q31.1094 20.4531 19.1875 8.29688" id="BitstreamVeraSans-Roman-32"/>
      </defs>
      <g transform="translate(2501.284125 411.638125)scale(0.12 -0.12)">
       <use xlink:href="#BitstreamVeraSans-Roman-32"/>
       <use x="63.623046875" xlink:href="#BitstreamVeraSans-Roman-30"/>
       <use x="127.24609375" xlink:href="#BitstreamVeraSans-Roman-30"/>
       <use x="190.869140625" xlink:href="#BitstreamVeraSans-Roman-30"/>
      </g>
     </g>
    </g>
    <g id="xtick_6">
     <g id="line2d_13">
      <g>
       <use style="stroke:#000000;stroke-width:0.5;" x="3039.12" xlink:href="#m93b0483c22" y="398.52"/>
      </g>
     </g>
     <g id="line2d_14">
      <g>
       <use style="stroke:#000000;stroke-width:0.5;" x="3039.12" xlink:href="#m741efc42ff" y="44.28"/>
      </g>
     </g>
     <g id="text_6">
      <!-- 2500 -->
      <g transform="translate(3024.688125 411.638125)scale(0.12 -0.12)">
       <use xlink:href="#BitstreamVeraSans-Roman-32"/>
       <use x="63.623046875" xlink:href="#BitstreamVeraSans-Roman-35"/>
       <use x="127.24609375" xlink:href="#BitstreamVeraSans-Roman-30"/>
       <use x="190.869140625" xlink:href="#BitstreamVeraSans-Roman-30"/>
      </g>
     </g>
    </g>
   </g>
   <g id="matplotlib.axis_2">
    <g id="ytick_1">
     <g id="line2d_15">
      <defs>
       <path d="
M0 0
L4 0" id="m728421d6d4" style="stroke:#000000;stroke-width:0.5;"/>
      </defs>
      <g>
       <use style="stroke:#000000;stroke-width:0.5;" x="422.1" xlink:href="#m728421d6d4" y="398.52"/>
      </g>
     </g>
     <g id="line2d_16">
      <defs>
       <path d="
M0 0
L-4 0" id="mcb0005524f" style="stroke:#000000;stroke-width:0.5;"/>
      </defs>
      <g>
       <use style="stroke:#000000;stroke-width:0.5;" x="3039.12" xlink:href="#mcb0005524f" y="398.52"/>
      </g>
     </g>
     <g id="text_7">
      <!-- 0 -->
      <g transform="translate(412.053125 401.83125)scale(0.12 -0.12)">
       <use xlink:href="#BitstreamVeraSans-Roman-30"/>
      </g>
     </g>
    </g>
    <g id="ytick_2">
     <g id="line2d_17">
      <g>
       <use style="stroke:#000000;stroke-width:0.5;" x="422.1" xlink:href="#m728421d6d4" y="359.16"/>
      </g>
     </g>
     <g id="line2d_18">
      <g>
       <use style="stroke:#000000;stroke-width:0.5;" x="3039.12" xlink:href="#mcb0005524f" y="359.16"/>
      </g>
     </g>
     <g id="text_8">
      <!-- 500 -->
      <g transform="translate(396.918125 362.47125)scale(0.12 -0.12)">
       <use xlink:href="#BitstreamVeraSans-Roman-35"/>
       <use x="63.623046875" xlink:href="#BitstreamVeraSans-Roman-30"/>
       <use x="127.24609375" xlink:href="#BitstreamVeraSans-Roman-30"/>
      </g>
     </g>
    </g>
    <g id="ytick_3">
     <g id="line2d_19">
      <g>
       <use style="stroke:#000000;stroke-width:0.5;" x="422.1" xlink:href="#m728421d6d4" y="319.8"/>
      </g>
     </g>
     <g id="line2d_20">
      <g>
       <use style="stroke:#000000;stroke-width:0.5;" x="3039.12" xlink:href="#mcb0005524f" y="319.8"/>
      </g>
     </g>
     <g id="text_9">
      <!-- 1000 -->
      <g transform="translate(389.675 323.11125)scale(0.12 -0.12)">
       <use xlink:href="#BitstreamVeraSans-Roman-31"/>
       <use x="63.623046875" xlink:href="#BitstreamVeraSans-Roman-30"/>
       <use x="127.24609375" xlink:href="#BitstreamVeraSans-Roman-30"/>
       <use x="190.869140625" xlink:href="#BitstreamVeraSans-Roman-30"/>
      </g>
     </g>
    </g>
    <g id="ytick_4">
     <g id="line2d_21">
      <g>
       <use style="stroke:#000000;stroke-width:0.5;" x="422.1" xlink:href="#m728421d6d4" y="280.44"/>
      </g>
     </g>
     <g id="line2d_22">
      <g>
       <use style="stroke:#000000;stroke-width:0.5;" x="3039.12" xlink:href="#mcb0005524f" y="280.44"/>
      </g>
     </g>
     <g id="text_10">
      <!-- 1500 -->
      <g transform="translate(389.675 283.75125)scale(0.12 -0.12)">
       <use xlink:href="#BitstreamVeraSans-Roman-31"/>
       <use x="63.623046875" xlink:href="#BitstreamVeraSans-Roman-35"/>
       <use x="127.24609375" xlink:href="#BitstreamVeraSans-Roman-30"/>
       <use x="190.869140625" xlink:href="#BitstreamVeraSans-Roman-30"/>
      </g>
     </g>
    </g>
    <g id="ytick_5">
     <g id="line2d_23">
      <g>
       <use style="stroke:#000000;stroke-width:0.5;" x="422.1" xlink:href="#m728421d6d4" y="241.08"/>
      </g>
     </g>
     <g id="line2d_24">
      <g>
       <use style="stroke:#000000;stroke-width:0.5;" x="3039.12" xlink:href="#mcb0005524f" y="241.08"/>
      </g>
     </g>
     <g id="text_11">
      <!-- 2000 -->
      <g transform="translate(389.23625 244.39125)scale(0.12 -0.12)">
       <use xlink:href="#BitstreamVeraSans-Roman-32"/>
       <use x="63.623046875" xlink:href="#BitstreamVeraSans-Roman-30"/>
       <use x="127.24609375" xlink:href="#BitstreamVeraSans-Roman-30"/>
       <use x="190.869140625" xlink:href="#BitstreamVeraSans-Roman-30"/>
      </g>
     </g>
    </g>
    <g id="ytick_6">
     <g id="line2d_25">
      <g>
       <use style="stroke:#000000;stroke-width:0.5;" x="422.1" xlink:href="#m728421d6d4" y="201.72"/>
      </g>
     </g>
     <g id="line2d_26">
      <g>
       <use style="stroke:#000000;stroke-width:0.5;" x="3039.12" xlink:href="#mcb0005524f" y="201.72"/>
      </g>
     </g>
     <g id="text_12">
      <!-- 2500 -->
      <g transform="translate(389.23625 205.03125)scale(0.12 -0.12)">
       <use xlink:href="#BitstreamVeraSans-Roman-32"/>
       <use x="63.623046875" xlink:href="#BitstreamVeraSans-Roman-35"/>
       <use x="127.24609375" xlink:href="#BitstreamVeraSans-Roman-30"/>
       <use x="190.869140625" xlink:href="#BitstreamVeraSans-Roman-30"/>
      </g>
     </g>
    </g>
    <g id="ytick_7">
     <g id="line2d_27">
      <g>
       <use style="stroke:#000000;stroke-width:0.5;" x="422.1" xlink:href="#m728421d6d4" y="162.36"/>
      </g>
     </g>
     <g id="line2d_28">
      <g>
       <use style="stroke:#000000;stroke-width:0.5;" x="3039.12" xlink:href="#mcb0005524f" y="162.36"/>
      </g>
     </g>
     <g id="text_13">
      <!-- 3000 -->
      <defs>
       <path d="
M40.5781 39.3125
Q47.6562 37.7969 51.625 33
Q55.6094 28.2188 55.6094 21.1875
Q55.6094 10.4062 48.1875 4.48438
Q40.7656 -1.42188 27.0938 -1.42188
Q22.5156 -1.42188 17.6562 -0.515625
Q12.7969 0.390625 7.625 2.20312
L7.625 11.7188
Q11.7188 9.32812 16.5938 8.10938
Q21.4844 6.89062 26.8125 6.89062
Q36.0781 6.89062 40.9375 10.5469
Q45.7969 14.2031 45.7969 21.1875
Q45.7969 27.6406 41.2812 31.2656
Q36.7656 34.9062 28.7188 34.9062
L20.2188 34.9062
L20.2188 43.0156
L29.1094 43.0156
Q36.375 43.0156 40.2344 45.9219
Q44.0938 48.8281 44.0938 54.2969
Q44.0938 59.9062 40.1094 62.9062
Q36.1406 65.9219 28.7188 65.9219
Q24.6562 65.9219 20.0156 65.0312
Q15.375 64.1562 9.8125 62.3125
L9.8125 71.0938
Q15.4375 72.6562 20.3438 73.4375
Q25.25 74.2188 29.5938 74.2188
Q40.8281 74.2188 47.3594 69.1094
Q53.9062 64.0156 53.9062 55.3281
Q53.9062 49.2656 50.4375 45.0938
Q46.9688 40.9219 40.5781 39.3125" id="BitstreamVeraSans-Roman-33"/>
      </defs>
      <g transform="translate(389.271875 165.67125)scale(0.12 -0.12)">
       <use xlink:href="#BitstreamVeraSans-Roman-33"/>
       <use x="63.623046875" xlink:href="#BitstreamVeraSans-Roman-30"/>
       <use x="127.24609375" xlink:href="#BitstreamVeraSans-Roman-30"/>
       <use x="190.869140625" xlink:href="#BitstreamVeraSans-Roman-30"/>
      </g>
     </g>
    </g>
    <g id="ytick_8">
     <g id="line2d_29">
      <g>
       <use style="stroke:#000000;stroke-width:0.5;" x="422.1" xlink:href="#m728421d6d4" y="123.0"/>
      </g>
     </g>
     <g id="line2d_30">
      <g>
       <use style="stroke:#000000;stroke-width:0.5;" x="3039.12" xlink:href="#mcb0005524f" y="123.0"/>
      </g>
     </g>
     <g id="text_14">
      <!-- 3500 -->
      <g transform="translate(389.271875 126.31125)scale(0.12 -0.12)">
       <use xlink:href="#BitstreamVeraSans-Roman-33"/>
       <use x="63.623046875" xlink:href="#BitstreamVeraSans-Roman-35"/>
       <use x="127.24609375" xlink:href="#BitstreamVeraSans-Roman-30"/>
       <use x="190.869140625" xlink:href="#BitstreamVeraSans-Roman-30"/>
      </g>
     </g>
    </g>
    <g id="ytick_9">
     <g id="line2d_31">
      <g>
       <use style="stroke:#000000;stroke-width:0.5;" x="422.1" xlink:href="#m728421d6d4" y="83.64"/>
      </g>
     </g>
     <g id="line2d_32">
      <g>
       <use style="stroke:#000000;stroke-width:0.5;" x="3039.12" xlink:href="#mcb0005524f" y="83.64"/>
      </g>
     </g>
     <g id="text_15">
      <!-- 4000 -->
      <defs>
       <path d="
M37.7969 64.3125
L12.8906 25.3906
L37.7969 25.3906
z

M35.2031 72.9062
L47.6094 72.9062
L47.6094 25.3906
L58.0156 25.3906
L58.0156 17.1875
L47.6094 17.1875
L47.6094 0
L37.7969 0
L37.7969 17.1875
L4.89062 17.1875
L4.89062 26.7031
z
" id="BitstreamVeraSans-Roman-34"/>
      </defs>
      <g transform="translate(388.94375 86.95125)scale(0.12 -0.12)">
       <use xlink:href="#BitstreamVeraSans-Roman-34"/>
       <use x="63.623046875" xlink:href="#BitstreamVeraSans-Roman-30"/>
       <use x="127.24609375" xlink:href="#BitstreamVeraSans-Roman-30"/>
       <use x="190.869140625" xlink:href="#BitstreamVeraSans-Roman-30"/>
      </g>
     </g>
    </g>
    <g id="ytick_10">
     <g id="line2d_33">
      <g>
       <use style="stroke:#000000;stroke-width:0.5;" x="422.1" xlink:href="#m728421d6d4" y="44.28"/>
      </g>
     </g>
     <g id="line2d_34">
      <g>
       <use style="stroke:#000000;stroke-width:0.5;" x="3039.12" xlink:href="#mcb0005524f" y="44.28"/>
      </g>
     </g>
     <g id="text_16">
      <!-- 4500 -->
      <g transform="translate(388.94375 47.59125)scale(0.12 -0.12)">
       <use xlink:href="#BitstreamVeraSans-Roman-34"/>
       <use x="63.623046875" xlink:href="#BitstreamVeraSans-Roman-35"/>
       <use x="127.24609375" xlink:href="#BitstreamVeraSans-Roman-30"/>
       <use x="190.869140625" xlink:href="#BitstreamVeraSans-Roman-30"/>
      </g>
     </g>
    </g>
   </g>
  </g>
 </g>
 <defs>
  <clipPath id="p3c807a1472">
   <rect height="354.24" width="2617.02" x="422.1" y="44.28"/>
  </clipPath>
 </defs>
</svg>
