<?xml version="1.0" encoding="utf-8" standalone="no"?>
<!DOCTYPE svg PUBLIC "-//W3C//DTD SVG 1.1//EN"
  "http://www.w3.org/Graphics/SVG/1.1/DTD/svg11.dtd">
<!-- Created with matplotlib (http://matplotlib.org/) -->
<svg height="442pt" version="1.1" viewBox="0 0 3352 442" width="3352pt" xmlns="http://www.w3.org/2000/svg" xmlns:xlink="http://www.w3.org/1999/xlink">
 <defs>
  <style type="text/css">
*{stroke-linecap:butt;stroke-linejoin:round;}
  </style>
 </defs>
 <g id="figure_1">
  <g id="patch_1">
   <path d="
M0 442.8
L3352.5 442.8
L3352.5 0
L0 0
z
" style="fill:#ffffff;"/>
  </g>
  <g id="axes_1">
   <g id="patch_2">
    <path d="
M419.062 398.52
L3017.25 398.52
L3017.25 44.28
L419.062 44.28
z
" style="fill:#ffffff;"/>
   </g>
   <g id="line2d_1">
    <path clip-path="url(#p654caa28d1)" d="
M419.062 230.471
L420.102 190.932
L421.141 138.217
L422.18 125.663
L423.22 210.022
L424.259 239.037
L425.298 172.38
L426.337 90.6484
L427.377 118.021
L428.416 224.232
L429.455 217.351
L430.495 142.605
L431.534 83.6647
L432.573 186.46
L433.612 247.302
L434.652 189.772
L435.691 71.1016
L436.73 101.539
L437.769 254.939
L438.809 313.346
L439.848 203.476
L440.887 59.9408
L441.927 115.279
L442.966 256.357
L444.005 317.197
L445.044 211.267
L446.084 142.527
L447.123 195.967
L448.162 296.514
L449.201 288.482
L450.241 205.803
L451.28 190.616
L453.359 351.534
L454.398 325.868
L455.437 261.705
L456.476 245.915
L457.516 302.648
L458.555 339.547
L459.594 331.501
L460.634 308.689
L461.673 323.501
L462.712 361.02
L463.751 364.364
L464.791 354.833
L465.83 343.999
L466.869 374.911
L468.948 395.851
L469.987 397.752
L472.066 356.252
L473.105 365.559
L474.144 383.39
L475.183 385
L476.223 349.586
L477.262 318.813
L478.301 313.193
L479.34 336.457
L480.38 340.446
L481.419 325.462
L482.458 299.168
L483.498 295.851
L484.537 304.443
L485.576 296.957
L486.615 273.094
L487.655 260.124
L489.733 306.763
L490.772 292.292
L491.812 242.132
L492.851 228.504
L494.93 291.218
L495.969 265.158
L497.008 217.598
L498.047 226.341
L499.087 278.501
L500.126 295.698
L501.165 228.853
L502.204 180.311
L503.244 214.737
L504.283 300.3
L505.322 305.951
L506.362 230.347
L507.401 190.447
L508.44 245.751
L509.479 318.033
L510.519 288.072
L511.558 202.463
L512.597 182.183
L513.637 279
L514.676 349.361
L515.715 302.5
L516.754 195.008
L517.794 187.131
L518.833 285.039
L519.872 362.268
L520.911 314.915
L521.951 221.91
L522.99 225.14
L524.029 311.282
L525.069 367.196
L527.147 247.086
L528.186 268.506
L529.226 357.073
L530.265 371.573
L531.304 307.166
L532.343 264.592
L533.383 316.086
L534.422 387.655
L535.461 377.253
L536.501 323.725
L537.54 311.673
L538.579 373.142
L539.618 398.144
L540.658 368.812
L541.697 331.951
L542.736 361.593
L543.775 380.447
L544.815 389.354
L545.854 371.165
L546.893 361.459
L547.933 380.972
L548.972 363.526
L550.011 390.856
L551.05 374.171
L552.09 387.012
L553.129 335.957
L554.168 338.175
L555.208 379.698
L556.247 398.027
L557.286 356.661
L558.325 331.862
L559.365 339.195
L560.404 372.426
L561.443 354.807
L562.482 330.434
L563.522 321.599
L564.561 352.557
L565.6 367.772
L567.679 304.693
L568.718 300.742
L569.757 337.373
L570.797 349.661
L571.836 329.46
L572.875 291.364
L573.914 300.738
L574.954 336.285
L575.993 350.712
L578.072 271.372
L579.111 296.507
L580.15 355.739
L581.189 373.526
L582.229 300.105
L583.268 255.663
L584.307 283.964
L585.346 374.249
L586.386 375.368
L587.425 299.543
L588.464 246.865
L589.504 302.125
L590.543 390.617
L591.582 372.897
L592.621 288.828
L593.661 245.417
L594.7 327.255
L595.739 398.013
L596.779 376.33
L597.818 282.039
L598.857 270.242
L599.896 343.088
L600.936 398.18
L601.975 357.494
L603.014 291.005
L604.053 308.987
L605.093 378.869
L606.132 392.029
L608.211 309.823
L609.25 339.493
L610.289 396.838
L611.328 396.423
L612.368 350.089
L613.407 332.863
L614.446 376.882
L615.485 384.651
L616.525 382.453
L617.564 348.841
L618.603 359.322
L619.643 385.868
L620.682 381.125
L621.721 379.423
L622.76 360.449
L623.8 395.364
L624.839 358.927
L625.878 377.976
L626.918 380.378
L627.957 375.941
L628.996 370.317
L630.035 348.112
L631.075 376.484
L632.114 382.369
L633.153 394.733
L634.192 351.253
L635.232 343.556
L636.271 379.929
L637.31 395.476
L639.389 335.247
L640.428 345.985
L641.467 393.428
L642.507 386.918
L643.546 339.05
L644.585 312.369
L645.624 352.781
L646.664 398.42
L647.703 375.727
L648.742 316.044
L649.782 305.621
L650.821 361.892
L651.86 391.997
L652.899 354.437
L653.939 296.271
L654.978 313.955
L656.017 376.868
L657.056 395.047
L658.096 338.082
L659.135 289.528
L660.174 324.038
L661.214 387.374
L662.253 397.965
L663.292 336.118
L664.331 301.005
L665.371 326.343
L666.41 381.08
L667.449 383.824
L668.488 338.921
L669.528 312.415
L670.567 332.754
L671.606 379.391
L672.646 380.186
L673.685 345.505
L674.724 315.706
L675.763 346.306
L676.803 383.304
L677.842 387.764
L678.881 346.484
L679.921 328.514
L680.96 361.266
L681.999 398.326
L683.038 382.843
L684.078 339.038
L685.117 339.879
L686.156 384.972
L687.195 385.759
L688.235 371.297
L689.274 342.737
L690.313 365.972
L691.353 379.391
L692.392 394.303
L693.431 354.539
L694.47 349.002
L695.51 389.461
L696.549 356.819
L697.588 391.209
L698.627 345.496
L699.667 369.471
L700.706 353.48
L701.745 354.712
L702.785 384.233
L703.824 351.965
L704.863 388.633
L705.902 338.517
L706.942 361.37
L707.981 378.645
L709.02 379.916
L710.059 355.433
L711.099 344.119
L712.138 383.578
L713.177 372.652
L714.217 383.91
L715.256 335.677
L716.295 344.099
L717.334 392.935
L718.374 379.647
L719.413 361.99
L720.452 321.9
L721.492 345.644
L722.531 392.502
L723.57 396.82
L724.609 343.087
L725.649 315.835
L726.688 361.425
L727.727 390.005
L728.766 383.598
L729.806 324.616
L730.845 313.624
L731.884 374.365
L732.924 383.577
L733.963 379.358
L735.002 315.323
L736.041 318.298
L737.081 378.757
L738.12 385.458
L739.159 371.731
L740.198 317.794
L741.238 328.169
L742.277 385.558
L743.316 391.891
L744.356 363.751
L745.395 323.532
L746.434 340.158
L747.473 390.44
L748.513 392.5
L749.552 359.523
L750.591 332.588
L752.67 389.312
L753.709 380.231
L754.748 349.658
L755.788 348.555
L756.827 384.772
L757.866 395.358
L758.905 379.827
L759.945 350.945
L760.984 370.957
L762.023 396.626
L763.063 395.835
L764.102 371.967
L765.141 363.78
L766.18 388.276
L767.22 389.919
L768.259 393.94
L769.298 363.648
L770.337 376.39
L771.377 391.365
L772.416 373.182
L773.455 391.263
L774.495 363.152
L775.534 377.782
L776.573 376.348
L777.612 359.674
L778.652 393.707
L779.691 376.521
L780.73 386.893
L781.769 370.688
L782.809 367.955
L783.848 398.444
L784.887 380.108
L785.927 386.931
L786.966 354.415
L788.005 371.748
L789.044 385.754
L790.084 383.39
L792.162 341.348
L793.202 376.248
L794.241 371.89
L795.28 397.624
L796.319 338.792
L797.359 333.6
L798.398 396.573
L799.437 365.478
L800.476 377.896
L801.516 321.068
L802.555 341.968
L803.594 380.341
L804.634 375.691
L805.673 351.63
L806.712 307.027
L807.751 366.539
L808.791 366.826
L809.83 387.318
L810.869 330.168
L811.908 315.771
L812.948 386.774
L813.987 365.115
L815.026 392.473
L816.066 328.327
L817.105 341.187
L818.144 394.468
L819.183 383.397
L820.223 366.181
L821.262 339.714
L822.301 363.208
L823.34 398.315
L824.38 390.378
L825.419 357.505
L826.458 354.162
L827.498 379.586
L828.537 394.812
L829.576 379.51
L830.615 365.996
L831.655 369.764
L832.694 387.286
L833.733 389.008
L835.812 372.272
L836.851 378.958
L837.89 389.287
L838.93 389.649
L841.008 371.566
L842.047 382.433
L843.087 395.801
L844.126 393.165
L845.165 381.815
L846.205 367.323
L847.244 383.839
L848.283 384.768
L849.322 388.055
L850.362 372.941
L851.401 364.999
L852.44 397.913
L853.479 363.675
L854.519 390.078
L855.558 365.775
L856.597 368.468
L857.637 380.997
L858.676 361.927
L859.715 395.286
L860.754 366.695
L861.794 392.625
L862.833 356.587
L863.872 372.288
L864.911 372.927
L865.951 362.031
L866.99 379.827
L868.029 347.276
L869.069 385.309
L870.108 359.89
L871.147 379.467
L872.186 356.747
L873.226 347.661
L874.265 391.902
L875.304 359.517
L876.343 390.812
L877.383 335.376
L879.461 373.657
L880.501 363.961
L881.54 373.146
L882.579 329.213
L883.618 366.59
L884.658 366.587
L885.697 375.758
L886.736 362.43
L887.776 338.443
L888.815 383.045
L889.854 370.772
L890.893 392.464
L891.933 355.944
L892.972 345.48
L894.011 388.626
L895.05 382.118
L896.09 394.261
L897.129 357.585
L898.168 361.034
L899.208 394.81
L900.247 393.809
L901.286 377.358
L902.325 354.84
L904.404 393.838
L905.443 398.353
L906.482 364.196
L907.522 354.296
L908.561 384.339
L909.6 385.761
L910.64 391.061
L911.679 358.447
L912.718 365.691
L913.757 394.535
L914.797 383.887
L915.836 377.686
L916.875 355.401
L917.914 378.51
L918.954 380.494
L919.993 391.489
L921.032 364.957
L922.072 352.933
L923.111 388.575
L924.15 382.762
L925.189 396.886
L926.229 367.337
L927.268 370.61
L928.307 395.259
L929.347 389.1
L930.386 388.265
L931.425 373.211
L932.464 389.688
L934.543 392.238
L935.582 385.492
L936.621 383.1
L937.661 394.738
L938.7 391.8
L939.739 396.209
L940.779 385.903
L941.818 386.791
L942.857 397.208
L943.896 379.834
L944.936 391.154
L947.014 379.102
L948.053 390.899
L949.093 367.252
L950.132 384.162
L951.171 378.111
L952.211 378.346
L953.25 375.709
L954.289 355.237
L955.328 392.332
L956.368 363.822
L957.407 389.694
L958.446 350.624
L959.486 345.426
L960.525 392.65
L961.564 357.892
L962.603 393.629
L963.643 337.394
L964.682 355.376
L965.721 378.388
L966.76 370.202
L967.8 372.425
L968.839 338.252
L969.878 379.863
L970.918 369.389
L971.957 391.52
L972.996 350.994
L974.035 345.858
L975.075 397.023
L976.114 377.104
L977.153 381.084
L978.192 342.853
L979.232 366.819
L980.271 386.486
L981.31 390.916
L982.35 361.046
L983.389 350.34
L984.428 387.99
L985.467 382.41
L986.507 389.892
L987.546 352.283
L988.585 363.048
L989.624 395.672
L990.664 389.205
L991.703 372.743
L992.742 352.528
L993.782 378.131
L995.86 396.396
L996.899 369.013
L997.939 357.448
L998.978 385.975
L1000.02 391.42
L1001.06 398.023
L1002.1 374.797
L1003.14 373.113
L1004.17 390.335
L1005.21 397.852
L1006.25 390.083
L1007.29 377.816
L1008.33 385.503
L1009.37 395.819
L1010.41 393.805
L1011.45 387.474
L1012.49 375.852
L1013.53 387.91
L1014.57 389.457
L1015.61 387.248
L1016.65 390.14
L1017.68 379.823
L1018.72 394.476
L1019.76 382.147
L1020.8 389.205
L1021.84 381.738
L1022.88 379.747
L1023.92 390.099
L1024.96 366.324
L1026 387.872
L1027.04 379.976
L1028.08 382.816
L1029.12 375.305
L1030.16 360.986
L1031.2 390.115
L1032.23 377.577
L1033.27 394.863
L1034.31 361.638
L1035.35 360.936
L1036.39 397.638
L1037.43 372.227
L1038.47 395.098
L1039.51 357.738
L1040.55 361.275
L1041.59 395.322
L1042.63 381.664
L1043.67 386.867
L1044.71 358.6
L1045.75 374.401
L1046.78 392.285
L1047.82 397.315
L1048.86 366.122
L1049.9 354.922
L1050.94 386.437
L1051.98 383.722
L1053.02 395.935
L1054.06 357.301
L1055.1 356.336
L1056.14 391.746
L1057.18 388.399
L1058.22 382.392
L1059.26 353.308
L1061.33 390.595
L1062.37 391.155
L1063.41 367.419
L1064.45 349.731
L1065.49 381.458
L1066.53 386.071
L1067.57 398.151
L1068.61 361.354
L1069.65 362.773
L1070.69 397.866
L1071.73 382.003
L1072.77 385.475
L1073.81 355.154
L1074.85 371.748
L1075.88 390.771
L1076.92 390.206
L1079 364.937
L1080.04 388.326
L1081.08 389.774
L1082.12 394.396
L1083.16 372.335
L1084.2 383.435
L1085.24 387.305
L1086.28 389.368
L1087.32 382.777
L1088.36 368.358
L1089.39 396.852
L1090.43 376.726
L1091.47 387.873
L1092.51 377.244
L1093.55 374.926
L1094.59 392.694
L1095.63 377.495
L1096.67 393.252
L1097.71 377.169
L1098.75 386.265
L1099.79 382.41
L1100.83 372.566
L1101.87 394.691
L1102.91 381.151
L1103.94 390.777
L1106.02 370.073
L1107.06 391.234
L1108.1 385.91
L1109.14 393.226
L1110.18 377.724
L1111.22 368.45
L1112.26 387.908
L1113.3 385.674
L1114.34 393.319
L1115.38 373.648
L1116.42 364.516
L1117.46 387.635
L1118.49 384.251
L1119.53 397.528
L1120.57 370.209
L1121.61 364.512
L1122.65 395.556
L1123.69 387.977
L1124.73 385.057
L1125.77 360.182
L1126.81 374.97
L1127.85 385.227
L1128.89 391.833
L1130.97 350.612
L1132.01 384.559
L1133.04 382.68
L1134.08 397.71
L1135.12 365.305
L1136.16 364.081
L1137.2 397.555
L1138.24 387.6
L1139.28 383.327
L1140.32 360.431
L1141.36 382.213
L1142.4 383.993
L1143.44 393.026
L1144.48 372.833
L1145.52 362.554
L1146.55 391.849
L1147.59 388.091
L1148.63 395.08
L1149.67 372.373
L1150.71 379.356
L1151.75 394.124
L1152.79 393.389
L1153.83 384.497
L1154.87 373.62
L1155.91 393.887
L1156.95 387.584
L1157.99 397.56
L1159.03 378.18
L1160.07 381.621
L1161.1 392.155
L1162.14 383.909
L1163.18 390.899
L1164.22 372.237
L1165.26 389.329
L1166.3 377.449
L1167.34 377.333
L1168.38 387.324
L1169.42 369.484
L1170.46 393.224
L1171.5 373.374
L1172.54 378.299
L1173.58 384.092
L1174.62 375.069
L1175.65 392.929
L1176.69 367.86
L1177.73 384.583
L1178.77 376.124
L1179.81 377.973
L1180.85 383.505
L1181.89 361.468
L1182.93 385.801
L1183.97 381.521
L1185.01 386.858
L1186.05 378.28
L1187.09 370.789
L1188.13 392.835
L1189.17 385.829
L1190.2 397.709
L1191.24 375.396
L1192.28 377.833
L1193.32 395.066
L1194.36 390.214
L1195.4 392.908
L1196.44 380.467
L1197.48 384.27
L1198.52 397.052
L1199.56 397.68
L1200.6 386.23
L1201.64 378.736
L1202.68 385.323
L1203.72 396.48
L1204.75 395.042
L1205.79 387.086
L1206.83 374.397
L1207.87 383.044
L1208.91 394.223
L1209.95 391.265
L1210.99 389.669
L1212.03 371.713
L1214.11 395.291
L1215.15 393.035
L1216.19 383.199
L1217.23 376.615
L1218.26 393.949
L1219.3 390.088
L1220.34 395.275
L1221.38 373.976
L1222.42 382.323
L1223.46 392.457
L1224.5 387.687
L1225.54 387.599
L1226.58 377.506
L1227.62 392.784
L1228.66 388.595
L1229.7 394.163
L1230.74 377.745
L1231.78 385.839
L1232.81 385.716
L1233.85 388.271
L1234.89 382.114
L1235.93 374.741
L1236.97 395.522
L1238.01 375.895
L1239.05 396.22
L1240.09 370.836
L1241.13 380.159
L1242.17 380.404
L1243.21 372.176
L1244.25 390.451
L1245.29 365.971
L1246.33 386.941
L1247.36 375.379
L1248.4 377.678
L1249.44 386.016
L1250.48 374.334
L1251.52 397.911
L1252.56 376.372
L1253.6 388.871
L1254.64 383.161
L1255.68 384.188
L1256.72 388.119
L1257.76 374.043
L1258.8 390.781
L1259.84 383.662
L1260.88 386.388
L1261.91 390.942
L1262.95 377.151
L1263.99 388.289
L1265.03 391.12
L1266.07 389.121
L1267.11 392.216
L1268.15 382.37
L1269.19 389.657
L1270.23 392.263
L1271.27 392.504
L1272.31 388.068
L1273.35 380.382
L1274.39 392.596
L1275.43 388.544
L1276.46 395.213
L1277.5 382.704
L1278.54 378.015
L1279.58 394.917
L1280.62 389.205
L1281.66 395.96
L1282.7 380.172
L1283.74 379.746
L1284.78 397.087
L1285.82 395.575
L1286.86 390.773
L1287.9 382.446
L1288.94 388.275
L1289.97 398.096
L1291.01 395.949
L1292.05 390.163
L1293.09 388.119
L1294.13 394.572
L1295.17 394.203
L1296.21 389.643
L1297.25 388.88
L1298.29 392.684
L1299.33 397.458
L1300.37 390.968
L1301.41 389.966
L1302.45 392.93
L1303.49 398.41
L1304.52 392.523
L1305.56 384.953
L1306.6 388.742
L1307.64 397.104
L1308.68 388.46
L1309.72 396.269
L1310.76 384.535
L1311.8 383.885
L1312.84 397.216
L1313.88 388.466
L1314.92 397.167
L1315.96 384.433
L1317 384.882
L1318.04 393.591
L1319.07 386.414
L1320.11 397.188
L1321.15 376.027
L1322.19 383.149
L1323.23 387.894
L1324.27 378.718
L1325.31 397.319
L1326.35 371.8
L1327.39 384.477
L1328.43 380.582
L1329.47 375.241
L1330.51 391.315
L1331.55 370.5
L1332.59 392.478
L1333.62 372.273
L1335.7 383.282
L1336.74 372.409
L1337.78 393.626
L1338.82 369.035
L1339.86 386.125
L1340.9 379.388
L1342.98 385.074
L1344.02 376.439
L1345.06 396.9
L1346.1 379.892
L1347.14 396.539
L1348.17 377.684
L1349.21 382.892
L1350.25 391.368
L1351.29 386.129
L1352.33 393.93
L1353.37 382.541
L1354.41 389.381
L1355.45 398.411
L1356.49 396.603
L1357.53 390.579
L1358.57 394.796
L1359.61 395.796
L1360.65 391.998
L1361.68 389.235
L1362.72 396.633
L1363.76 394.608
L1364.8 389.946
L1365.84 383.938
L1366.88 388.926
L1367.92 388.113
L1368.96 393.91
L1371.04 379.355
L1372.08 395.071
L1373.12 387.986
L1374.16 396.01
L1375.2 382.757
L1376.23 386.946
L1377.27 390.618
L1378.31 392.226
L1379.35 388.14
L1380.39 379.885
L1381.43 393.132
L1382.47 392.573
L1383.51 397.664
L1384.55 389.386
L1386.63 397.28
L1387.67 395.798
L1388.71 389.575
L1389.75 397.577
L1390.78 390.599
L1391.82 396.69
L1392.86 385.69
L1393.9 391.22
L1394.94 386.799
L1395.98 385.483
L1397.02 388.954
L1398.06 377.418
L1399.1 398.244
L1400.14 377.933
L1401.18 391.75
L1402.22 378.092
L1403.26 381.396
L1404.3 381.829
L1405.33 372.249
L1406.37 396.643
L1407.41 370.576
L1408.45 393.012
L1409.49 369.624
L1410.53 373.963
L1411.57 384.374
L1412.61 372.55
L1413.65 393.077
L1414.69 366.384
L1415.73 383.995
L1416.77 379.97
L1417.81 381.605
L1418.85 384.969
L1419.88 371.658
L1420.92 395.431
L1421.96 383.775
L1423 393.022
L1424.04 379.621
L1425.08 381.03
L1426.12 398.416
L1427.16 386.095
L1428.2 398.116
L1429.24 385.4
L1430.28 385.698
L1431.32 395.765
L1432.36 394.06
L1433.39 397.736
L1435.47 389.243
L1436.51 390.772
L1437.55 397.184
L1438.59 395.366
L1439.63 397.907
L1440.67 388.351
L1441.71 387.43
L1442.75 398.228
L1443.79 389.254
L1444.83 396.159
L1445.87 385.242
L1446.91 384.71
L1447.94 396.258
L1448.98 385.158
L1450.02 395.488
L1451.06 383.317
L1452.1 385.775
L1453.14 395.479
L1454.18 386.312
L1455.22 397.857
L1456.26 385.878
L1457.3 390.088
L1458.34 391.756
L1459.38 390.082
L1460.42 397.455
L1461.46 391.367
L1462.49 394.875
L1463.53 393.117
L1464.57 393.573
L1465.61 395.003
L1466.65 398.308
L1467.69 398.41
L1468.73 395.455
L1469.77 396.942
L1470.81 394.033
L1471.85 394.928
L1472.89 395.631
L1473.93 395.363
L1474.97 391.78
L1476.01 386.911
L1477.04 397.678
L1478.08 385.383
L1479.12 392.888
L1480.16 384.964
L1481.2 379.648
L1482.24 397.46
L1483.28 381.223
L1484.32 393.57
L1485.36 379.926
L1486.4 380.157
L1487.44 390.621
L1488.48 378.747
L1489.52 397.346
L1490.56 375.792
L1491.59 381.493
L1492.63 389.231
L1493.67 381.898
L1494.71 395.18
L1495.75 376.164
L1496.79 389.199
L1497.83 383.362
L1498.87 383.322
L1499.91 392.302
L1500.95 378.007
L1501.99 392.322
L1503.03 384.684
L1504.07 385.315
L1505.1 392.023
L1506.14 382.62
L1507.18 395.382
L1508.22 388.003
L1509.26 390.701
L1510.3 392.621
L1511.34 388.33
L1512.38 397.119
L1513.42 392.957
L1514.46 392.914
L1515.5 396.81
L1516.54 394.691
L1517.58 398.269
L1518.62 393.897
L1519.65 391.377
L1520.69 395.21
L1521.73 394.341
L1522.77 391.273
L1523.81 397.046
L1524.85 387.087
L1525.89 390.306
L1526.93 391.981
L1527.97 386.638
L1529.01 398.505
L1530.05 384.099
L1531.09 391.754
L1532.13 389.238
L1533.17 385.811
L1534.2 391.249
L1535.24 379.024
L1536.28 393.076
L1537.32 386.011
L1538.36 386.031
L1539.4 387.043
L1540.44 380.678
L1541.48 394.735
L1542.52 383.716
L1543.56 390.793
L1545.64 384.174
L1546.68 396.78
L1547.72 386.089
L1548.75 393.196
L1549.79 392.672
L1550.83 386.333
L1551.87 397.982
L1552.91 391.816
L1553.95 390.192
L1554.99 397.426
L1556.03 392.457
L1557.07 396.529
L1558.11 395.729
L1559.15 392.599
L1560.19 396.809
L1561.23 392.223
L1562.26 394.246
L1563.3 393.221
L1564.34 389.117
L1565.38 396.244
L1566.42 391.272
L1567.46 389.972
L1568.5 393.634
L1569.54 385.928
L1570.58 389.992
L1571.62 394.641
L1572.66 391.166
L1573.7 392.973
L1574.74 384.062
L1575.78 391.647
L1576.81 388.061
L1577.85 387.449
L1578.89 393.194
L1579.93 379.815
L1580.97 392.001
L1582.01 386.419
L1583.05 389.377
L1584.09 389.322
L1585.13 379.663
L1586.17 397.577
L1587.21 385.799
L1588.25 394.495
L1589.29 381.113
L1590.33 381.532
L1591.36 397.97
L1592.4 387.796
L1593.44 398.222
L1594.48 384.856
L1595.52 389.199
L1596.56 397.316
L1597.6 394.164
L1598.64 395.473
L1599.68 395.004
L1600.72 390.683
L1602.8 394.738
L1603.84 392.542
L1604.88 393.411
L1605.91 389.835
L1606.95 383.054
L1607.99 396.585
L1609.03 380.939
L1610.07 391.742
L1611.11 380.137
L1612.15 377.218
L1613.19 390.291
L1614.23 373.709
L1615.27 398.467
L1616.31 370.353
L1617.35 381.776
L1619.43 372.52
L1620.46 387.547
L1621.5 367.853
L1622.54 392.888
L1623.58 369.808
L1624.62 379.085
L1625.66 384.466
L1626.7 378.904
L1627.74 389.019
L1628.78 373.729
L1629.82 393.927
L1630.86 381.439
L1631.9 390.529
L1632.94 384.945
L1633.97 384.1
L1635.01 396.781
L1636.05 392.62
L1637.09 395.139
L1638.13 391.414
L1639.17 397.157
L1640.21 396.786
L1641.25 390.753
L1642.29 387.747
L1643.33 398.131
L1644.37 393.118
L1645.41 390.248
L1646.45 382.102
L1647.49 392.139
L1648.52 386.043
L1649.56 393.789
L1650.6 382.229
L1651.64 379.442
L1652.68 398.485
L1653.72 385.063
L1654.76 394.981
L1655.8 378.331
L1656.84 386.22
L1657.88 387.607
L1658.92 387.714
L1659.96 388.149
L1661 376.013
L1662.04 392.413
L1663.07 387.44
L1664.11 390.268
L1665.15 386.208
L1666.19 382.607
L1667.23 394.36
L1668.27 391.495
L1669.31 394.682
L1670.35 391.967
L1671.39 385.179
L1672.43 389.581
L1673.47 397.602
L1674.51 392.244
L1675.55 394.64
L1676.59 388.796
L1677.62 388.184
L1678.66 397.406
L1679.7 384.991
L1680.74 393.262
L1681.78 386.436
L1682.82 384.313
L1683.86 391.396
L1684.9 376.186
L1685.94 394.298
L1686.98 376.802
L1688.02 380.126
L1689.06 386.22
L1690.1 373.023
L1691.14 395.842
L1692.17 375.761
L1693.21 388.181
L1694.25 381.143
L1695.29 374.873
L1696.33 393.938
L1697.37 377.23
L1698.41 394.835
L1699.45 376.755
L1700.49 376.512
L1701.53 394.031
L1702.57 384.565
L1703.61 398.286
L1704.65 378.781
L1705.68 387.254
L1706.72 393.897
L1707.76 389.754
L1708.8 391.291
L1709.84 378.98
L1711.92 394.549
L1712.96 391.127
L1714 392.705
L1715.04 384.547
L1716.08 387.916
L1717.12 396.25
L1718.16 396.184
L1719.2 391.885
L1720.23 389.733
L1721.27 393.563
L1722.31 395.849
L1723.35 392.941
L1724.39 391.239
L1726.47 392.937
L1727.51 389.427
L1728.55 391.788
L1729.59 398.146
L1730.63 397.018
L1731.67 390.664
L1732.71 380.876
L1733.75 390.052
L1734.78 390.032
L1735.82 390.267
L1736.86 386.135
L1737.9 375.075
L1738.94 392.85
L1739.98 381.795
L1741.02 392.96
L1742.06 376.591
L1743.1 371.745
L1744.14 396.484
L1745.18 375.884
L1746.22 395.593
L1747.26 372.787
L1748.3 376.348
L1749.33 387.169
L1750.37 375.801
L1751.41 395.586
L1752.45 374.722
L1753.49 386.056
L1754.53 380.898
L1755.57 379.98
L1756.61 392.446
L1757.65 376.893
L1758.69 388.858
L1759.73 384.648
L1760.77 382.242
L1761.81 397.837
L1762.85 384.485
L1763.88 389.085
L1764.92 391.621
L1765.96 382.868
L1767 392.738
L1768.04 388.279
L1769.08 385.769
L1770.12 394.41
L1771.16 380.159
L1772.2 389.186
L1773.24 387.231
L1774.28 383.666
L1775.32 388.27
L1776.36 375.714
L1777.39 389.825
L1778.43 380.512
L1779.47 388.495
L1780.51 378.317
L1781.55 371.297
L1782.59 398.245
L1783.63 376.214
L1784.67 394.664
L1785.71 372.925
L1786.75 376.566
L1787.79 388.359
L1788.83 379.201
L1789.87 391.649
L1790.91 369.474
L1791.94 386.726
L1792.98 388.168
L1794.02 390.995
L1795.06 380.821
L1796.1 379.465
L1797.14 397.919
L1798.18 393.517
L1799.22 386.92
L1800.26 375.895
L1801.3 393.447
L1802.34 389.071
L1803.38 397.015
L1804.42 379.62
L1805.46 384.712
L1806.49 392.171
L1807.53 397.891
L1808.57 379.083
L1809.61 376.357
L1810.65 392.901
L1811.69 380.929
L1812.73 390.585
L1813.77 364.325
L1814.81 377.734
L1815.85 384.31
L1816.89 383.748
L1817.93 382.102
L1818.97 365.25
L1820.01 393.827
L1821.04 376.879
L1822.08 388.917
L1823.12 372.277
L1824.16 365.898
L1825.2 397.641
L1826.24 376.855
L1827.28 393.593
L1828.32 376.016
L1829.36 376.181
L1830.4 394.954
L1831.44 383.139
L1832.48 395.775
L1833.52 375.044
L1834.56 380.39
L1835.59 390.111
L1836.63 380.796
L1837.67 395.212
L1838.71 377.615
L1839.75 380.522
L1840.79 398.194
L1841.83 385.825
L1842.87 396.681
L1843.91 383.61
L1844.95 386.118
L1845.99 391.571
L1847.03 382.063
L1848.07 396.812
L1849.1 381.91
L1850.14 388.44
L1851.18 380.958
L1852.22 379.202
L1853.26 396.7
L1854.3 380.637
L1855.34 394.747
L1856.38 377.325
L1857.42 380.95
L1858.46 391.897
L1859.5 381.306
L1860.54 392.184
L1861.58 372.686
L1862.62 383.513
L1863.65 388.173
L1864.69 387.589
L1865.73 384.396
L1866.77 373.127
L1867.81 390.258
L1868.85 389.583
L1869.89 396.748
L1870.93 377.728
L1871.97 377.436
L1873.01 397.969
L1874.05 393.45
L1875.09 387.491
L1876.13 376.218
L1877.17 385.087
L1878.2 395.52
L1879.24 395.96
L1880.28 379.266
L1881.32 377.105
L1882.36 394.45
L1883.4 393.819
L1884.44 388.86
L1885.48 375.53
L1887.56 393.665
L1888.6 397.658
L1889.64 375.831
L1890.68 370.248
L1891.72 395.084
L1892.75 384.644
L1893.79 397.485
L1894.83 367.567
L1895.87 370.044
L1896.91 397.213
L1897.95 386.716
L1898.99 386.681
L1900.03 364.781
L1901.07 379.412
L1902.11 383.898
L1904.19 379.574
L1905.23 361.277
L1906.27 382.609
L1907.3 378.973
L1908.34 387.261
L1909.38 380.704
L1910.42 369.074
L1911.46 397.666
L1912.5 378.608
L1913.54 396.309
L1914.58 371.094
L1915.62 377.017
L1916.66 386.48
L1917.7 378.722
L1918.74 395.621
L1919.78 374.618
L1920.81 390.98
L1921.85 382.673
L1922.89 383.816
L1923.93 389.091
L1924.97 381.861
L1926.01 392.97
L1927.05 376.899
L1928.09 385.085
L1929.13 388.948
L1930.17 388.891
L1931.21 390.872
L1932.25 375.789
L1933.29 381.868
L1934.33 397.623
L1935.36 397.122
L1936.4 389.649
L1937.44 379.384
L1938.48 386.864
L1939.52 398.008
L1940.56 398.305
L1941.6 382.163
L1942.64 371.273
L1943.68 384.912
L1944.72 392.749
L1945.76 396.472
L1946.8 376.902
L1947.84 366.845
L1948.88 386.03
L1949.91 394.813
L1950.95 392.53
L1951.99 365.026
L1953.03 369.823
L1954.07 395.686
L1955.11 390.431
L1956.15 383.353
L1957.19 362.002
L1959.27 395.63
L1960.31 396.706
L1961.35 366.238
L1962.39 367.211
L1963.43 395.223
L1964.46 387.624
L1965.5 382.427
L1966.54 354.266
L1967.58 370.364
L1968.62 389.589
L1969.66 386.051
L1970.7 373.951
L1971.74 355.791
L1972.78 382.245
L1973.82 382.294
L1974.86 396.234
L1975.9 364.823
L1976.94 363.431
L1977.97 398.406
L1979.01 376.986
L1980.05 388.108
L1981.09 359.163
L1983.17 382.582
L1984.21 374.206
L1985.25 384.024
L1986.29 362.179
L1987.33 383.008
L1988.37 376.324
L1989.41 384.983
L1990.45 380.326
L1991.49 371.818
L1992.52 393.456
L1993.56 374.595
L1994.6 398.436
L1995.64 369.365
L1996.68 383.185
L1997.72 378.751
L1998.76 373.014
L1999.8 390.588
L2000.84 373.076
L2001.88 397.305
L2002.92 368.353
L2003.96 377.838
L2005 381.243
L2006.04 379.248
L2007.07 385.661
L2008.11 358.931
L2009.15 382.804
L2010.19 381.989
L2011.23 383.476
L2012.27 382.076
L2013.31 367.268
L2014.35 389.024
L2015.39 388.65
L2016.43 397.937
L2017.47 368.114
L2018.51 368.036
L2019.55 391.987
L2020.59 385.41
L2021.62 391.734
L2022.66 364.631
L2023.7 363.433
L2024.74 387.531
L2025.78 393.21
L2026.82 388.674
L2027.86 372.078
L2028.9 373.391
L2029.94 392.743
L2030.98 394.756
L2032.02 377.606
L2033.06 367.381
L2034.1 381.026
L2035.14 396.542
L2036.17 391.01
L2037.21 369.991
L2038.25 366.913
L2039.29 391.267
L2040.33 390.902
L2041.37 387.262
L2042.41 361.373
L2043.45 366.115
L2044.49 394.732
L2045.53 386.493
L2046.57 384.823
L2047.61 354.346
L2048.65 370.387
L2049.68 390.567
L2050.72 389.832
L2052.8 356.186
L2053.84 390.508
L2054.88 374.749
L2055.92 395.516
L2056.96 356.931
L2058 357.712
L2059.04 386.876
L2060.08 361.92
L2061.12 395.836
L2062.16 350.77
L2063.2 367.107
L2064.23 377.37
L2065.27 371.031
L2066.31 381.454
L2067.35 358.583
L2068.39 393.773
L2069.43 365.494
L2070.47 387.235
L2071.51 367.862
L2072.55 372.824
L2073.59 376.147
L2074.63 356.869
L2075.67 397.22
L2076.71 363.635
L2077.75 383.154
L2078.78 364.035
L2079.82 363.963
L2080.86 392.163
L2081.9 369.905
L2082.94 397.157
L2083.98 360.58
L2085.02 372.519
L2086.06 386.633
L2087.1 377.369
L2088.14 388.983
L2089.18 362.641
L2091.26 392.49
L2092.3 390.256
L2093.33 382.197
L2094.37 368.384
L2095.41 387.176
L2097.49 397.411
L2098.53 372.649
L2099.57 366.706
L2101.65 397.324
L2102.69 394.137
L2103.73 377.844
L2104.77 376.106
L2105.81 384.489
L2106.85 389.96
L2107.88 376.651
L2108.92 375.342
L2109.96 388.184
L2111 391.91
L2112.04 392.767
L2113.08 368.866
L2114.12 365.693
L2115.16 389.297
L2116.2 383.912
L2117.24 394.327
L2118.28 368.637
L2119.32 362.179
L2120.36 397.054
L2121.39 387.592
L2122.43 384.894
L2123.47 356.847
L2125.55 383.723
L2126.59 382.712
L2127.63 375.7
L2128.67 349.488
L2129.71 383.749
L2130.75 376.472
L2131.79 388.575
L2132.83 360.008
L2133.87 353.91
L2134.91 393.602
L2135.94 364.576
L2136.98 397.343
L2138.02 348.389
L2139.06 361.184
L2140.1 383.559
L2141.14 366.763
L2142.18 384.504
L2143.22 353.416
L2144.26 384.079
L2145.3 367.789
L2146.34 380.352
L2147.38 363.517
L2148.42 352.661
L2149.46 393.358
L2150.49 350.765
L2151.53 383.944
L2152.57 354.921
L2153.61 354.756
L2154.65 379.44
L2155.69 347.165
L2156.73 388.173
L2157.77 355.475
L2158.81 367.411
L2159.85 369.496
L2160.89 351.057
L2161.93 398.159
L2162.97 358.673
L2164.01 386.172
L2165.04 360.985
L2166.08 360.335
L2167.12 384.208
L2168.16 365.3
L2169.2 390.926
L2170.24 352.631
L2171.28 371.272
L2172.32 382.543
L2173.36 383.899
L2174.4 374.844
L2175.44 356.101
L2176.48 385.592
L2177.52 390.535
L2178.56 391.891
L2179.59 365.706
L2180.63 374.821
L2181.67 396.029
L2182.71 393.01
L2183.75 368.068
L2184.79 366.185
L2185.83 394.888
L2187.91 384.16
L2188.95 351.78
L2189.99 364.221
L2191.03 395.562
L2192.07 385.455
L2193.1 382.945
L2194.14 359.449
L2195.18 366.172
L2196.22 391.515
L2197.26 397.806
L2198.3 375.31
L2199.34 361.516
L2200.38 370.706
L2201.42 398.403
L2202.46 394.63
L2203.5 368.394
L2204.54 349.666
L2205.58 368.951
L2206.62 392.399
L2207.65 391.979
L2208.69 372.211
L2209.73 346.726
L2210.77 373.692
L2211.81 388.524
L2212.85 391.886
L2213.89 359.466
L2214.93 350.573
L2215.97 389.375
L2217.01 371.574
L2218.05 393.131
L2219.09 340.002
L2220.13 349.55
L2221.17 390.543
L2222.2 363.86
L2223.24 374.902
L2224.28 331.711
L2225.32 367.213
L2226.36 354.331
L2227.4 365.759
L2228.44 353.566
L2229.48 317.083
L2230.52 386.637
L2231.56 337.579
L2232.6 368.561
L2233.64 349.385
L2234.68 333.779
L2235.72 387.174
L2236.75 347.231
L2237.79 392.924
L2238.83 345.331
L2239.87 370.216
L2240.91 358.337
L2241.95 354.464
L2242.99 389.065
L2244.03 355.488
L2245.07 397.405
L2246.11 357.026
L2247.15 371.929
L2248.19 380.71
L2249.23 381.93
L2250.27 378.179
L2251.3 364.529
L2252.34 392.104
L2253.38 387.958
L2254.42 385.266
L2255.46 361.55
L2256.5 372.797
L2257.54 391.157
L2258.58 398.125
L2259.62 365.104
L2260.66 350.566
L2261.7 382.2
L2262.74 387.559
L2263.78 393.698
L2264.81 356.146
L2265.85 351.431
L2266.89 384.215
L2267.93 392.53
L2268.97 384.357
L2270.01 344.943
L2271.05 346.662
L2272.09 378.312
L2273.13 398.266
L2274.17 373.6
L2275.21 339.312
L2276.25 348.186
L2277.29 383.538
L2278.33 396.779
L2280.4 331.527
L2281.44 353.087
L2282.48 397.773
L2283.52 396.222
L2284.56 356.623
L2285.6 327.884
L2286.64 359.036
L2287.68 398.395
L2288.72 392.754
L2289.76 345.261
L2290.8 338.337
L2291.84 376.578
L2292.88 392.776
L2293.91 372.82
L2294.95 330.963
L2295.99 346.067
L2297.03 395.607
L2298.07 379.512
L2299.11 366.358
L2300.15 324.711
L2301.19 352.044
L2302.23 386.215
L2303.27 377.756
L2304.31 365
L2305.35 330.283
L2306.39 366.623
L2307.43 374.104
L2308.46 376.568
L2309.5 367.747
L2310.54 342.289
L2311.58 380.731
L2312.62 366.863
L2313.66 380.528
L2314.7 371.941
L2315.74 356.175
L2316.78 394.792
L2317.82 365.658
L2318.86 389.195
L2319.9 363.543
L2320.94 374.687
L2321.98 373.933
L2323.01 357.528
L2324.05 394.338
L2325.09 372.489
L2326.13 394.381
L2327.17 358.451
L2328.21 365.41
L2329.25 392.141
L2330.29 397.475
L2331.33 357.947
L2332.37 343.97
L2333.41 388.122
L2334.45 377.292
L2335.49 381.741
L2336.52 326.569
L2337.56 333.907
L2338.6 396.101
L2339.64 377.478
L2340.68 364.499
L2341.72 312.574
L2342.76 345.573
L2343.8 386.912
L2344.84 393.183
L2345.88 337.011
L2346.92 308.325
L2347.96 364.805
L2349 381.092
L2350.04 384.78
L2351.07 313.627
L2352.11 312.657
L2353.15 377.037
L2354.19 387.321
L2355.23 357.644
L2356.27 301.041
L2357.31 326.69
L2358.35 386.243
L2359.39 395.073
L2360.43 336.776
L2361.47 311.164
L2362.51 351.214
L2363.55 397.51
L2364.59 380.356
L2365.62 329.545
L2366.66 326.509
L2367.7 369.76
L2368.74 396.356
L2369.78 364.376
L2370.82 328.356
L2371.86 336.757
L2372.9 382.786
L2373.94 394.574
L2374.98 365.877
L2376.02 327.953
L2377.06 339.435
L2378.1 386.186
L2379.14 386.161
L2380.17 384.129
L2381.21 337.002
L2382.25 343.611
L2383.29 389.432
L2384.33 375.535
L2385.37 385.48
L2386.41 344.831
L2387.45 355.328
L2388.49 384.904
L2389.53 371.571
L2390.57 376.904
L2391.61 344.011
L2392.65 380.381
L2393.68 359.343
L2394.72 374.664
L2395.76 369.875
L2396.8 360.664
L2397.84 382.72
L2398.88 351.473
L2399.92 390.044
L2400.96 367.798
L2402 397.847
L2403.04 353.593
L2404.08 362.091
L2405.12 384.126
L2406.16 390.956
L2407.2 344.912
L2408.23 326.397
L2409.27 379.276
L2410.31 364.234
L2411.35 382.411
L2412.39 313.292
L2413.43 312.737
L2414.47 392.263
L2415.51 375.42
L2416.55 360.431
L2417.59 303.845
L2418.63 330.997
L2419.67 392.734
L2420.71 397.414
L2421.75 333.142
L2422.78 290.472
L2424.86 396.277
L2425.9 378.914
L2426.94 308.987
L2427.98 292.785
L2429.02 350.153
L2430.06 393.005
L2431.1 362.827
L2432.14 299.697
L2433.18 300.952
L2434.22 359.727
L2435.26 392.185
L2436.3 349.959
L2437.33 301.098
L2438.37 311.245
L2439.41 366.638
L2440.45 378.031
L2441.49 333.564
L2442.53 298.806
L2443.57 329.401
L2444.61 382.375
L2445.65 371.546
L2446.69 318.861
L2447.73 296.727
L2449.81 397.312
L2450.85 376.426
L2451.88 314.629
L2452.92 302.08
L2453.96 357.069
L2455 394.193
L2456.04 380.16
L2457.08 320.888
L2458.12 324.07
L2459.16 369.657
L2460.2 391.158
L2461.24 375.603
L2462.28 341.269
L2463.32 354.361
L2464.36 397.09
L2465.39 392.052
L2466.43 370.012
L2467.47 351.619
L2468.51 380.656
L2469.55 381.344
L2470.59 389.929
L2471.63 376.778
L2472.67 373.034
L2473.71 389.75
L2474.75 377.448
L2475.79 391.195
L2477.87 385.354
L2478.91 354.241
L2479.94 362.796
L2480.98 390.038
L2482.02 394.285
L2483.06 350.225
L2484.1 332.713
L2485.14 357.294
L2486.18 398.415
L2487.22 378.989
L2488.26 320.166
L2489.3 302.39
L2490.34 343.134
L2491.38 395.221
L2492.42 362.237
L2493.46 301.857
L2494.49 280.152
L2495.53 339.085
L2496.57 376.625
L2497.61 337.857
L2498.65 271.265
L2499.69 277.855
L2500.73 351.163
L2501.77 373.331
L2503.85 244.964
L2504.89 285.99
L2505.93 358.054
L2506.97 358.52
L2508.01 270.378
L2509.04 236.685
L2511.12 359.666
L2512.16 323.808
L2513.2 243.442
L2514.24 250.21
L2515.28 330.387
L2516.32 363.853
L2517.36 297.685
L2518.4 241.538
L2519.44 276.448
L2520.48 354.116
L2521.52 347.459
L2522.56 271.796
L2523.59 242.231
L2524.63 302.523
L2525.67 373.124
L2526.71 338.964
L2527.75 269.73
L2528.79 246.244
L2529.83 318.172
L2530.87 367.174
L2531.91 348.185
L2532.95 298.571
L2533.99 293.969
L2535.03 347.584
L2536.07 363.682
L2537.1 347.221
L2538.14 310.097
L2539.18 336.675
L2540.22 368.612
L2541.26 385.255
L2542.3 355.254
L2543.34 338.609
L2544.38 361.269
L2545.42 391.257
L2546.46 396.038
L2547.5 374.817
L2548.54 386.617
L2549.58 394.13
L2550.62 381.842
L2551.65 396.419
L2552.69 398.02
L2553.73 368.02
L2554.77 344.151
L2555.81 354.591
L2556.85 383.197
L2557.89 377.309
L2558.93 335.545
L2559.97 302.394
L2561.01 323.943
L2562.05 351.374
L2563.09 342.602
L2564.13 289.842
L2565.17 268.741
L2567.24 333.976
L2568.28 317.57
L2569.32 255.545
L2570.36 241.505
L2571.4 276.967
L2572.44 321.171
L2573.48 284.822
L2574.52 231.143
L2575.56 215.228
L2576.6 271.975
L2577.64 291.23
L2578.68 241.586
L2579.72 177.784
L2580.75 195.296
L2581.79 270.452
L2582.83 281.286
L2584.91 156.719
L2585.95 203.093
L2586.99 268.028
L2588.03 262.11
L2589.07 187.325
L2590.11 171.492
L2591.15 244.691
L2592.19 292.799
L2593.23 236.105
L2594.27 139.012
L2595.3 160.48
L2596.34 257.832
L2597.38 314.05
L2599.46 157.333
L2600.5 184.654
L2601.54 282.128
L2602.58 303.083
L2603.62 218.301
L2604.66 177.998
L2605.7 239.187
L2606.74 337.451
L2607.78 313.375
L2608.81 228.244
L2609.85 190.976
L2610.89 273.467
L2611.93 340.836
L2612.97 321.256
L2614.01 267.275
L2615.05 279.066
L2616.09 346.14
L2617.13 356.773
L2618.17 318.005
L2619.21 286.661
L2620.25 344.411
L2621.29 389.657
L2622.33 382.591
L2623.36 349.067
L2624.4 361.199
L2625.44 389.423
L2626.48 397.671
L2627.52 367.79
L2628.56 359.903
L2629.6 357.341
L2630.64 313.284
L2631.68 316.408
L2632.72 373.296
L2633.76 366.186
L2634.8 320.524
L2635.84 283.461
L2637.91 296.816
L2638.95 279.861
L2639.99 257.096
L2641.03 253.026
L2642.07 272.593
L2643.11 266.283
L2644.15 257.929
L2645.19 213.76
L2646.23 209.729
L2647.27 210.588
L2648.31 243.637
L2649.35 225.424
L2650.39 186.906
L2651.43 162.026
L2652.46 187.819
L2652.46 187.819" style="fill:none;stroke:#0000ff;stroke-linecap:square;"/>
   </g>
   <g id="patch_3">
    <path d="
M419.062 44.28
L3017.25 44.28" style="fill:none;stroke:#000000;stroke-linecap:square;stroke-linejoin:miter;"/>
   </g>
   <g id="patch_4">
    <path d="
M3017.25 398.52
L3017.25 44.28" style="fill:none;stroke:#000000;stroke-linecap:square;stroke-linejoin:miter;"/>
   </g>
   <g id="patch_5">
    <path d="
M419.062 398.52
L3017.25 398.52" style="fill:none;stroke:#000000;stroke-linecap:square;stroke-linejoin:miter;"/>
   </g>
   <g id="patch_6">
    <path d="
M419.062 398.52
L419.062 44.28" style="fill:none;stroke:#000000;stroke-linecap:square;stroke-linejoin:miter;"/>
   </g>
   <g id="matplotlib.axis_1">
    <g id="xtick_1">
     <g id="line2d_2">
      <defs>
       <path d="
M0 0
L0 -4" id="m93b0483c22" style="stroke:#000000;stroke-width:0.5;"/>
      </defs>
      <g>
       <use style="stroke:#000000;stroke-width:0.5;" x="419.0625" xlink:href="#m93b0483c22" y="398.52"/>
      </g>
     </g>
     <g id="line2d_3">
      <defs>
       <path d="
M0 0
L0 4" id="m741efc42ff" style="stroke:#000000;stroke-width:0.5;"/>
      </defs>
      <g>
       <use style="stroke:#000000;stroke-width:0.5;" x="419.0625" xlink:href="#m741efc42ff" y="44.28"/>
      </g>
     </g>
     <g id="text_1">
      <!-- 0 -->
      <defs>
       <path d="
M31.7812 66.4062
Q24.1719 66.4062 20.3281 58.9062
Q16.5 51.4219 16.5 36.375
Q16.5 21.3906 20.3281 13.8906
Q24.1719 6.39062 31.7812 6.39062
Q39.4531 6.39062 43.2812 13.8906
Q47.125 21.3906 47.125 36.375
Q47.125 51.4219 43.2812 58.9062
Q39.4531 66.4062 31.7812 66.4062
M31.7812 74.2188
Q44.0469 74.2188 50.5156 64.5156
Q56.9844 54.8281 56.9844 36.375
Q56.9844 17.9688 50.5156 8.26562
Q44.0469 -1.42188 31.7812 -1.42188
Q19.5312 -1.42188 13.0625 8.26562
Q6.59375 17.9688 6.59375 36.375
Q6.59375 54.8281 13.0625 64.5156
Q19.5312 74.2188 31.7812 74.2188" id="BitstreamVeraSans-Roman-30"/>
      </defs>
      <g transform="translate(416.0390625 411.638125)scale(0.12 -0.12)">
       <use xlink:href="#BitstreamVeraSans-Roman-30"/>
      </g>
     </g>
    </g>
    <g id="xtick_2">
     <g id="line2d_4">
      <g>
       <use style="stroke:#000000;stroke-width:0.5;" x="938.7" xlink:href="#m93b0483c22" y="398.52"/>
      </g>
     </g>
     <g id="line2d_5">
      <g>
       <use style="stroke:#000000;stroke-width:0.5;" x="938.7" xlink:href="#m741efc42ff" y="44.28"/>
      </g>
     </g>
     <g id="text_2">
      <!-- 500 -->
      <defs>
       <path d="
M10.7969 72.9062
L49.5156 72.9062
L49.5156 64.5938
L19.8281 64.5938
L19.8281 46.7344
Q21.9688 47.4688 24.1094 47.8281
Q26.2656 48.1875 28.4219 48.1875
Q40.625 48.1875 47.75 41.5
Q54.8906 34.8125 54.8906 23.3906
Q54.8906 11.625 47.5625 5.09375
Q40.2344 -1.42188 26.9062 -1.42188
Q22.3125 -1.42188 17.5469 -0.640625
Q12.7969 0.140625 7.71875 1.70312
L7.71875 11.625
Q12.1094 9.23438 16.7969 8.0625
Q21.4844 6.89062 26.7031 6.89062
Q35.1562 6.89062 40.0781 11.3281
Q45.0156 15.7656 45.0156 23.3906
Q45.0156 31 40.0781 35.4375
Q35.1562 39.8906 26.7031 39.8906
Q22.75 39.8906 18.8125 39.0156
Q14.8906 38.1406 10.7969 36.2812
z
" id="BitstreamVeraSans-Roman-35"/>
      </defs>
      <g transform="translate(928.1090625 411.638125)scale(0.12 -0.12)">
       <use xlink:href="#BitstreamVeraSans-Roman-35"/>
       <use x="63.623046875" xlink:href="#BitstreamVeraSans-Roman-30"/>
       <use x="127.24609375" xlink:href="#BitstreamVeraSans-Roman-30"/>
      </g>
     </g>
    </g>
    <g id="xtick_3">
     <g id="line2d_6">
      <g>
       <use style="stroke:#000000;stroke-width:0.5;" x="1458.3375" xlink:href="#m93b0483c22" y="398.52"/>
      </g>
     </g>
     <g id="line2d_7">
      <g>
       <use style="stroke:#000000;stroke-width:0.5;" x="1458.3375" xlink:href="#m741efc42ff" y="44.28"/>
      </g>
     </g>
     <g id="text_3">
      <!-- 1000 -->
      <defs>
       <path d="
M12.4062 8.29688
L28.5156 8.29688
L28.5156 63.9219
L10.9844 60.4062
L10.9844 69.3906
L28.4219 72.9062
L38.2812 72.9062
L38.2812 8.29688
L54.3906 8.29688
L54.3906 0
L12.4062 0
z
" id="BitstreamVeraSans-Roman-31"/>
      </defs>
      <g transform="translate(1444.125 411.638125)scale(0.12 -0.12)">
       <use xlink:href="#BitstreamVeraSans-Roman-31"/>
       <use x="63.623046875" xlink:href="#BitstreamVeraSans-Roman-30"/>
       <use x="127.24609375" xlink:href="#BitstreamVeraSans-Roman-30"/>
       <use x="190.869140625" xlink:href="#BitstreamVeraSans-Roman-30"/>
      </g>
     </g>
    </g>
    <g id="xtick_4">
     <g id="line2d_8">
      <g>
       <use style="stroke:#000000;stroke-width:0.5;" x="1977.975" xlink:href="#m93b0483c22" y="398.52"/>
      </g>
     </g>
     <g id="line2d_9">
      <g>
       <use style="stroke:#000000;stroke-width:0.5;" x="1977.975" xlink:href="#m741efc42ff" y="44.28"/>
      </g>
     </g>
     <g id="text_4">
      <!-- 1500 -->
      <g transform="translate(1963.7625 411.638125)scale(0.12 -0.12)">
       <use xlink:href="#BitstreamVeraSans-Roman-31"/>
       <use x="63.623046875" xlink:href="#BitstreamVeraSans-Roman-35"/>
       <use x="127.24609375" xlink:href="#BitstreamVeraSans-Roman-30"/>
       <use x="190.869140625" xlink:href="#BitstreamVeraSans-Roman-30"/>
      </g>
     </g>
    </g>
    <g id="xtick_5">
     <g id="line2d_10">
      <g>
       <use style="stroke:#000000;stroke-width:0.5;" x="2497.6125" xlink:href="#m93b0483c22" y="398.52"/>
      </g>
     </g>
     <g id="line2d_11">
      <g>
       <use style="stroke:#000000;stroke-width:0.5;" x="2497.6125" xlink:href="#m741efc42ff" y="44.28"/>
      </g>
     </g>
     <g id="text_5">
      <!-- 2000 -->
      <defs>
       <path d="
M19.1875 8.29688
L53.6094 8.29688
L53.6094 0
L7.32812 0
L7.32812 8.29688
Q12.9375 14.1094 22.625 23.8906
Q32.3281 33.6875 34.8125 36.5312
Q39.5469 41.8438 41.4219 45.5312
Q43.3125 49.2188 43.3125 52.7812
Q43.3125 58.5938 39.2344 62.25
Q35.1562 65.9219 28.6094 65.9219
Q23.9688 65.9219 18.8125 64.3125
Q13.6719 62.7031 7.8125 59.4219
L7.8125 69.3906
Q13.7656 71.7812 18.9375 73
Q24.125 74.2188 28.4219 74.2188
Q39.75 74.2188 46.4844 68.5469
Q53.2188 62.8906 53.2188 53.4219
Q53.2188 48.9219 51.5312 44.8906
Q49.8594 40.875 45.4062 35.4062
Q44.1875 33.9844 37.6406 27.2188
Q31.1094 20.4531 19.1875 8.29688" id="BitstreamVeraSans-Roman-32"/>
      </defs>
      <g transform="translate(2483.180625 411.638125)scale(0.12 -0.12)">
       <use xlink:href="#BitstreamVeraSans-Roman-32"/>
       <use x="63.623046875" xlink:href="#BitstreamVeraSans-Roman-30"/>
       <use x="127.24609375" xlink:href="#BitstreamVeraSans-Roman-30"/>
       <use x="190.869140625" xlink:href="#BitstreamVeraSans-Roman-30"/>
      </g>
     </g>
    </g>
    <g id="xtick_6">
     <g id="line2d_12">
      <g>
       <use style="stroke:#000000;stroke-width:0.5;" x="3017.25" xlink:href="#m93b0483c22" y="398.52"/>
      </g>
     </g>
     <g id="line2d_13">
      <g>
       <use style="stroke:#000000;stroke-width:0.5;" x="3017.25" xlink:href="#m741efc42ff" y="44.28"/>
      </g>
     </g>
     <g id="text_6">
      <!-- 2500 -->
      <g transform="translate(3002.818125 411.638125)scale(0.12 -0.12)">
       <use xlink:href="#BitstreamVeraSans-Roman-32"/>
       <use x="63.623046875" xlink:href="#BitstreamVeraSans-Roman-35"/>
       <use x="127.24609375" xlink:href="#BitstreamVeraSans-Roman-30"/>
       <use x="190.869140625" xlink:href="#BitstreamVeraSans-Roman-30"/>
      </g>
     </g>
    </g>
   </g>
   <g id="matplotlib.axis_2">
    <g id="ytick_1">
     <g id="line2d_14">
      <defs>
       <path d="
M0 0
L4 0" id="m728421d6d4" style="stroke:#000000;stroke-width:0.5;"/>
      </defs>
      <g>
       <use style="stroke:#000000;stroke-width:0.5;" x="419.0625" xlink:href="#m728421d6d4" y="398.52"/>
      </g>
     </g>
     <g id="line2d_15">
      <defs>
       <path d="
M0 0
L-4 0" id="mcb0005524f" style="stroke:#000000;stroke-width:0.5;"/>
      </defs>
      <g>
       <use style="stroke:#000000;stroke-width:0.5;" x="3017.25" xlink:href="#mcb0005524f" y="398.52"/>
      </g>
     </g>
     <g id="text_7">
      <!-- 0 -->
      <g transform="translate(409.015625 401.83125)scale(0.12 -0.12)">
       <use xlink:href="#BitstreamVeraSans-Roman-30"/>
      </g>
     </g>
    </g>
    <g id="ytick_2">
     <g id="line2d_16">
      <g>
       <use style="stroke:#000000;stroke-width:0.5;" x="419.0625" xlink:href="#m728421d6d4" y="359.16"/>
      </g>
     </g>
     <g id="line2d_17">
      <g>
       <use style="stroke:#000000;stroke-width:0.5;" x="3017.25" xlink:href="#mcb0005524f" y="359.16"/>
      </g>
     </g>
     <g id="text_8">
      <!-- 1000 -->
      <g transform="translate(386.6375 362.47125)scale(0.12 -0.12)">
       <use xlink:href="#BitstreamVeraSans-Roman-31"/>
       <use x="63.623046875" xlink:href="#BitstreamVeraSans-Roman-30"/>
       <use x="127.24609375" xlink:href="#BitstreamVeraSans-Roman-30"/>
       <use x="190.869140625" xlink:href="#BitstreamVeraSans-Roman-30"/>
      </g>
     </g>
    </g>
    <g id="ytick_3">
     <g id="line2d_18">
      <g>
       <use style="stroke:#000000;stroke-width:0.5;" x="419.0625" xlink:href="#m728421d6d4" y="319.8"/>
      </g>
     </g>
     <g id="line2d_19">
      <g>
       <use style="stroke:#000000;stroke-width:0.5;" x="3017.25" xlink:href="#mcb0005524f" y="319.8"/>
      </g>
     </g>
     <g id="text_9">
      <!-- 2000 -->
      <g transform="translate(386.19875 323.11125)scale(0.12 -0.12)">
       <use xlink:href="#BitstreamVeraSans-Roman-32"/>
       <use x="63.623046875" xlink:href="#BitstreamVeraSans-Roman-30"/>
       <use x="127.24609375" xlink:href="#BitstreamVeraSans-Roman-30"/>
       <use x="190.869140625" xlink:href="#BitstreamVeraSans-Roman-30"/>
      </g>
     </g>
    </g>
    <g id="ytick_4">
     <g id="line2d_20">
      <g>
       <use style="stroke:#000000;stroke-width:0.5;" x="419.0625" xlink:href="#m728421d6d4" y="280.44"/>
      </g>
     </g>
     <g id="line2d_21">
      <g>
       <use style="stroke:#000000;stroke-width:0.5;" x="3017.25" xlink:href="#mcb0005524f" y="280.44"/>
      </g>
     </g>
     <g id="text_10">
      <!-- 3000 -->
      <defs>
       <path d="
M40.5781 39.3125
Q47.6562 37.7969 51.625 33
Q55.6094 28.2188 55.6094 21.1875
Q55.6094 10.4062 48.1875 4.48438
Q40.7656 -1.42188 27.0938 -1.42188
Q22.5156 -1.42188 17.6562 -0.515625
Q12.7969 0.390625 7.625 2.20312
L7.625 11.7188
Q11.7188 9.32812 16.5938 8.10938
Q21.4844 6.89062 26.8125 6.89062
Q36.0781 6.89062 40.9375 10.5469
Q45.7969 14.2031 45.7969 21.1875
Q45.7969 27.6406 41.2812 31.2656
Q36.7656 34.9062 28.7188 34.9062
L20.2188 34.9062
L20.2188 43.0156
L29.1094 43.0156
Q36.375 43.0156 40.2344 45.9219
Q44.0938 48.8281 44.0938 54.2969
Q44.0938 59.9062 40.1094 62.9062
Q36.1406 65.9219 28.7188 65.9219
Q24.6562 65.9219 20.0156 65.0312
Q15.375 64.1562 9.8125 62.3125
L9.8125 71.0938
Q15.4375 72.6562 20.3438 73.4375
Q25.25 74.2188 29.5938 74.2188
Q40.8281 74.2188 47.3594 69.1094
Q53.9062 64.0156 53.9062 55.3281
Q53.9062 49.2656 50.4375 45.0938
Q46.9688 40.9219 40.5781 39.3125" id="BitstreamVeraSans-Roman-33"/>
      </defs>
      <g transform="translate(386.234375 283.75125)scale(0.12 -0.12)">
       <use xlink:href="#BitstreamVeraSans-Roman-33"/>
       <use x="63.623046875" xlink:href="#BitstreamVeraSans-Roman-30"/>
       <use x="127.24609375" xlink:href="#BitstreamVeraSans-Roman-30"/>
       <use x="190.869140625" xlink:href="#BitstreamVeraSans-Roman-30"/>
      </g>
     </g>
    </g>
    <g id="ytick_5">
     <g id="line2d_22">
      <g>
       <use style="stroke:#000000;stroke-width:0.5;" x="419.0625" xlink:href="#m728421d6d4" y="241.08"/>
      </g>
     </g>
     <g id="line2d_23">
      <g>
       <use style="stroke:#000000;stroke-width:0.5;" x="3017.25" xlink:href="#mcb0005524f" y="241.08"/>
      </g>
     </g>
     <g id="text_11">
      <!-- 4000 -->
      <defs>
       <path d="
M37.7969 64.3125
L12.8906 25.3906
L37.7969 25.3906
z

M35.2031 72.9062
L47.6094 72.9062
L47.6094 25.3906
L58.0156 25.3906
L58.0156 17.1875
L47.6094 17.1875
L47.6094 0
L37.7969 0
L37.7969 17.1875
L4.89062 17.1875
L4.89062 26.7031
z
" id="BitstreamVeraSans-Roman-34"/>
      </defs>
      <g transform="translate(385.90625 244.39125)scale(0.12 -0.12)">
       <use xlink:href="#BitstreamVeraSans-Roman-34"/>
       <use x="63.623046875" xlink:href="#BitstreamVeraSans-Roman-30"/>
       <use x="127.24609375" xlink:href="#BitstreamVeraSans-Roman-30"/>
       <use x="190.869140625" xlink:href="#BitstreamVeraSans-Roman-30"/>
      </g>
     </g>
    </g>
    <g id="ytick_6">
     <g id="line2d_24">
      <g>
       <use style="stroke:#000000;stroke-width:0.5;" x="419.0625" xlink:href="#m728421d6d4" y="201.72"/>
      </g>
     </g>
     <g id="line2d_25">
      <g>
       <use style="stroke:#000000;stroke-width:0.5;" x="3017.25" xlink:href="#mcb0005524f" y="201.72"/>
      </g>
     </g>
     <g id="text_12">
      <!-- 5000 -->
      <g transform="translate(386.245625 205.03125)scale(0.12 -0.12)">
       <use xlink:href="#BitstreamVeraSans-Roman-35"/>
       <use x="63.623046875" xlink:href="#BitstreamVeraSans-Roman-30"/>
       <use x="127.24609375" xlink:href="#BitstreamVeraSans-Roman-30"/>
       <use x="190.869140625" xlink:href="#BitstreamVeraSans-Roman-30"/>
      </g>
     </g>
    </g>
    <g id="ytick_7">
     <g id="line2d_26">
      <g>
       <use style="stroke:#000000;stroke-width:0.5;" x="419.0625" xlink:href="#m728421d6d4" y="162.36"/>
      </g>
     </g>
     <g id="line2d_27">
      <g>
       <use style="stroke:#000000;stroke-width:0.5;" x="3017.25" xlink:href="#mcb0005524f" y="162.36"/>
      </g>
     </g>
     <g id="text_13">
      <!-- 6000 -->
      <defs>
       <path d="
M33.0156 40.375
Q26.375 40.375 22.4844 35.8281
Q18.6094 31.2969 18.6094 23.3906
Q18.6094 15.5312 22.4844 10.9531
Q26.375 6.39062 33.0156 6.39062
Q39.6562 6.39062 43.5312 10.9531
Q47.4062 15.5312 47.4062 23.3906
Q47.4062 31.2969 43.5312 35.8281
Q39.6562 40.375 33.0156 40.375
M52.5938 71.2969
L52.5938 62.3125
Q48.875 64.0625 45.0938 64.9844
Q41.3125 65.9219 37.5938 65.9219
Q27.8281 65.9219 22.6719 59.3281
Q17.5312 52.7344 16.7969 39.4062
Q19.6719 43.6562 24.0156 45.9219
Q28.375 48.1875 33.5938 48.1875
Q44.5781 48.1875 50.9531 41.5156
Q57.3281 34.8594 57.3281 23.3906
Q57.3281 12.1562 50.6875 5.35938
Q44.0469 -1.42188 33.0156 -1.42188
Q20.3594 -1.42188 13.6719 8.26562
Q6.98438 17.9688 6.98438 36.375
Q6.98438 53.6562 15.1875 63.9375
Q23.3906 74.2188 37.2031 74.2188
Q40.9219 74.2188 44.7031 73.4844
Q48.4844 72.75 52.5938 71.2969" id="BitstreamVeraSans-Roman-36"/>
      </defs>
      <g transform="translate(386.1575 165.67125)scale(0.12 -0.12)">
       <use xlink:href="#BitstreamVeraSans-Roman-36"/>
       <use x="63.623046875" xlink:href="#BitstreamVeraSans-Roman-30"/>
       <use x="127.24609375" xlink:href="#BitstreamVeraSans-Roman-30"/>
       <use x="190.869140625" xlink:href="#BitstreamVeraSans-Roman-30"/>
      </g>
     </g>
    </g>
    <g id="ytick_8">
     <g id="line2d_28">
      <g>
       <use style="stroke:#000000;stroke-width:0.5;" x="419.0625" xlink:href="#m728421d6d4" y="123.0"/>
      </g>
     </g>
     <g id="line2d_29">
      <g>
       <use style="stroke:#000000;stroke-width:0.5;" x="3017.25" xlink:href="#mcb0005524f" y="123.0"/>
      </g>
     </g>
     <g id="text_14">
      <!-- 7000 -->
      <defs>
       <path d="
M8.20312 72.9062
L55.0781 72.9062
L55.0781 68.7031
L28.6094 0
L18.3125 0
L43.2188 64.5938
L8.20312 64.5938
z
" id="BitstreamVeraSans-Roman-37"/>
      </defs>
      <g transform="translate(386.30375 126.31125)scale(0.12 -0.12)">
       <use xlink:href="#BitstreamVeraSans-Roman-37"/>
       <use x="63.623046875" xlink:href="#BitstreamVeraSans-Roman-30"/>
       <use x="127.24609375" xlink:href="#BitstreamVeraSans-Roman-30"/>
       <use x="190.869140625" xlink:href="#BitstreamVeraSans-Roman-30"/>
      </g>
     </g>
    </g>
    <g id="ytick_9">
     <g id="line2d_30">
      <g>
       <use style="stroke:#000000;stroke-width:0.5;" x="419.0625" xlink:href="#m728421d6d4" y="83.64"/>
      </g>
     </g>
     <g id="line2d_31">
      <g>
       <use style="stroke:#000000;stroke-width:0.5;" x="3017.25" xlink:href="#mcb0005524f" y="83.64"/>
      </g>
     </g>
     <g id="text_15">
      <!-- 8000 -->
      <defs>
       <path d="
M31.7812 34.625
Q24.75 34.625 20.7188 30.8594
Q16.7031 27.0938 16.7031 20.5156
Q16.7031 13.9219 20.7188 10.1562
Q24.75 6.39062 31.7812 6.39062
Q38.8125 6.39062 42.8594 10.1719
Q46.9219 13.9688 46.9219 20.5156
Q46.9219 27.0938 42.8906 30.8594
Q38.875 34.625 31.7812 34.625
M21.9219 38.8125
Q15.5781 40.375 12.0312 44.7188
Q8.5 49.0781 8.5 55.3281
Q8.5 64.0625 14.7188 69.1406
Q20.9531 74.2188 31.7812 74.2188
Q42.6719 74.2188 48.875 69.1406
Q55.0781 64.0625 55.0781 55.3281
Q55.0781 49.0781 51.5312 44.7188
Q48 40.375 41.7031 38.8125
Q48.8281 37.1562 52.7969 32.3125
Q56.7812 27.4844 56.7812 20.5156
Q56.7812 9.90625 50.3125 4.23438
Q43.8438 -1.42188 31.7812 -1.42188
Q19.7344 -1.42188 13.25 4.23438
Q6.78125 9.90625 6.78125 20.5156
Q6.78125 27.4844 10.7812 32.3125
Q14.7969 37.1562 21.9219 38.8125
M18.3125 54.3906
Q18.3125 48.7344 21.8438 45.5625
Q25.3906 42.3906 31.7812 42.3906
Q38.1406 42.3906 41.7188 45.5625
Q45.3125 48.7344 45.3125 54.3906
Q45.3125 60.0625 41.7188 63.2344
Q38.1406 66.4062 31.7812 66.4062
Q25.3906 66.4062 21.8438 63.2344
Q18.3125 60.0625 18.3125 54.3906" id="BitstreamVeraSans-Roman-38"/>
      </defs>
      <g transform="translate(386.133125 86.95125)scale(0.12 -0.12)">
       <use xlink:href="#BitstreamVeraSans-Roman-38"/>
       <use x="63.623046875" xlink:href="#BitstreamVeraSans-Roman-30"/>
       <use x="127.24609375" xlink:href="#BitstreamVeraSans-Roman-30"/>
       <use x="190.869140625" xlink:href="#BitstreamVeraSans-Roman-30"/>
      </g>
     </g>
    </g>
    <g id="ytick_10">
     <g id="line2d_32">
      <g>
       <use style="stroke:#000000;stroke-width:0.5;" x="419.0625" xlink:href="#m728421d6d4" y="44.28"/>
      </g>
     </g>
     <g id="line2d_33">
      <g>
       <use style="stroke:#000000;stroke-width:0.5;" x="3017.25" xlink:href="#mcb0005524f" y="44.28"/>
      </g>
     </g>
     <g id="text_16">
      <!-- 9000 -->
      <defs>
       <path d="
M10.9844 1.51562
L10.9844 10.5
Q14.7031 8.73438 18.5 7.8125
Q22.3125 6.89062 25.9844 6.89062
Q35.75 6.89062 40.8906 13.4531
Q46.0469 20.0156 46.7812 33.4062
Q43.9531 29.2031 39.5938 26.9531
Q35.25 24.7031 29.9844 24.7031
Q19.0469 24.7031 12.6719 31.3125
Q6.29688 37.9375 6.29688 49.4219
Q6.29688 60.6406 12.9375 67.4219
Q19.5781 74.2188 30.6094 74.2188
Q43.2656 74.2188 49.9219 64.5156
Q56.5938 54.8281 56.5938 36.375
Q56.5938 19.1406 48.4062 8.85938
Q40.2344 -1.42188 26.4219 -1.42188
Q22.7031 -1.42188 18.8906 -0.6875
Q15.0938 0.046875 10.9844 1.51562
M30.6094 32.4219
Q37.25 32.4219 41.125 36.9531
Q45.0156 41.5 45.0156 49.4219
Q45.0156 57.2812 41.125 61.8438
Q37.25 66.4062 30.6094 66.4062
Q23.9688 66.4062 20.0938 61.8438
Q16.2188 57.2812 16.2188 49.4219
Q16.2188 41.5 20.0938 36.9531
Q23.9688 32.4219 30.6094 32.4219" id="BitstreamVeraSans-Roman-39"/>
      </defs>
      <g transform="translate(386.075 47.59125)scale(0.12 -0.12)">
       <use xlink:href="#BitstreamVeraSans-Roman-39"/>
       <use x="63.623046875" xlink:href="#BitstreamVeraSans-Roman-30"/>
       <use x="127.24609375" xlink:href="#BitstreamVeraSans-Roman-30"/>
       <use x="190.869140625" xlink:href="#BitstreamVeraSans-Roman-30"/>
      </g>
     </g>
    </g>
   </g>
  </g>
 </g>
 <defs>
  <clipPath id="p654caa28d1">
   <rect height="354.24" width="2598.1875" x="419.0625" y="44.28"/>
  </clipPath>
 </defs>
</svg>
